<svg id="Layer_1" data-name="Layer 1" xmlns="http://www.w3.org/2000/svg" viewBox="0 0 1014.99 2065.53"><defs><style>.cls-1{fill:#727272;}.cls-2{fill:#fafafa;}.cls-3{fill:#f9f9f9;}.cls-4{fill:#bdbec3;}.cls-5{fill:#c5c6cb;}.cls-6{fill:#6d6e73;}.cls-7{fill:#94959a;}.cls-8{fill:#898a8e;}.cls-9{fill:#f6f6f6;}.cls-10{fill:#999a9f;}.cls-11{fill:#cccdd2;}.cls-12{fill:#c3c4c9;}.cls-13{fill:#bbbcc1;}.cls-14{fill:#414142;}.cls-15{fill:#c4c5ca;}.cls-16{fill:#b1b1b6;}.cls-17{fill:#c1c2c7;}.cls-18{fill:#a2a2a6;}.cls-19{fill:#b1b2b7;}.cls-20{fill:#929398;}.cls-21{fill:#9a9ba0;}.cls-22{fill:#747579;}.cls-23{fill:#98999d;}.cls-24{fill:#b5b6ba;}.cls-25{fill:#757575;}.cls-26{fill:#cfcfcf;}.cls-27{fill:#cacaca;}.cls-28{fill:#ececec;}.cls-29{fill:#797979;}.cls-30{fill:#414141;}.cls-31{fill:#878787;}.cls-32{fill:#c7c7c7;}.cls-33{fill:#b5b5b5;}.cls-34{fill:#9c9c9c;}.cls-35{fill:#616267;}.cls-36{fill:#68696d;}.cls-37{fill:#6b6c71;}.cls-38{fill:#595959;}.cls-39{fill:#575757;}.cls-40{fill:#5c5c5c;}.cls-41{fill:#5e5e5e;}.cls-42{fill:#515256;}.cls-43{fill:#474747;}.cls-44{fill:#f7f7f7;}.cls-45{fill:#f4f4f4;}.cls-46{fill:#f3f3f3;}.cls-47{fill:#545454;}.cls-48{fill:#4b4c50;}.cls-49{fill:#fcfcfc;}.cls-50{fill:#b4b5b8;}.cls-51{fill:#f1f1f1;}.cls-52{fill:#fbfbfb;}.cls-53{fill:#fdfdfd;}.cls-54{fill:#fefefe;}.cls-55{fill:#efefef;}.cls-56{fill:#f2f2f2;}.cls-57{fill:#f5f5f5;}.cls-58{fill:#a5a6a9;}.cls-59{fill:#2d2d2e;}.cls-60{fill:#c4c4c4;}.cls-61{fill:#b9babc;}.cls-62{fill:#cdcdcd;}.cls-63{fill:#bfc0c0;}.cls-64{fill:#7e7e7e;}.cls-65{fill:#b3b3b3;}.cls-66{fill:#2b2726;}.cls-67{fill:#999;}.cls-68{fill:#c9c9c9;}.cls-69{fill:#acacac;}.cls-70{fill:#b9b9b9;}.cls-71{fill:#818181;}.cls-72{fill:#898989;}.cls-73{fill:#8d8d8d;}.cls-74{fill:#858585;}.cls-75{fill:#959595;}.cls-76{fill:#a5a5a5;}.cls-77{fill:#9d9d9d;}.cls-78{fill:#a1a1a1;}.cls-79{fill:#bdbdbd;}.cls-80{fill:#a9a9a9;}.cls-81{fill:silver;}.cls-82{fill:#919191;}.cls-83{fill:#2e2e2e;}.cls-84{fill:#363636;}.cls-85{fill:#6b6b6b;}.cls-86{fill:#494a4a;}.cls-87{fill:#585858;}.cls-88{fill:#484848;}.cls-89{fill:#616161;}.cls-90{fill:#515151;}.cls-91{fill:#3e3e3e;}.cls-92{fill:#666;}.cls-93{fill:#bababa;}.cls-94{fill:#f0f0f0;}.cls-95{fill:#ededed;}.cls-96{fill:#535353;}.cls-97{fill:#525252;}.cls-98{fill:#5b5b5b;}.cls-99{fill:#505050;}.cls-100{fill:#aeaeae;}.cls-101{fill:#939393;}.cls-102{fill:#565656;}.cls-103{fill:#5a5a5a;}.cls-104{fill:#3d3d3d;}.cls-105{fill:#5d5d5d;}.cls-106{fill:#e9e9e9;}.cls-107{fill:#eaeaea;}.cls-108{fill:#3b3c3e;}.cls-109{fill:#0a0d0f;}.cls-110{fill:#2f3134;}.cls-111{fill:#36373a;}.cls-112{fill:#26292b;}.cls-113{fill:#3c3e40;}.cls-114{fill:#656769;}.cls-115{fill:#4f5153;}.cls-116{fill:#797b7d;}.cls-117{fill:#4e5052;}.cls-118{fill:#8b8d8f;}.cls-119{fill:#abacae;}.cls-120{fill:#9a9c9d;}.cls-121{fill:#9d9ea0;}.cls-122{fill:#626466;}.cls-123{fill:#767779;}.cls-124{fill:#87898a;}.cls-125{fill:#373737;}.cls-126{fill:#5e5f63;}.cls-127{fill:#b2b3b6;}.cls-128{fill:#5a5b5f;}.cls-129{fill:#4f4f4f;}.cls-130{fill:#494a4e;}.cls-131{fill:#434343;}.cls-132{fill:#d4d4d4;}.cls-133{fill:#545555;}.cls-134{fill:#454545;}.cls-135{fill:#676767;}.cls-136{fill:#3f3f3f;}.cls-137{fill:#626262;}.cls-138{fill:#494949;}.cls-139{fill:#3a3a3a;}.cls-140{fill:#515152;}.cls-141{fill:#575758;}.cls-142{fill:#4e4e4e;}.cls-143{fill:#e5e5e5;}.cls-144{fill:#dcdcdc;}.cls-145{fill:#444445;}.cls-146{fill:#464646;}.cls-147{fill:#3c3c3c;}.cls-148{fill:#181b1f;}.cls-149{fill:#161a1e;}.cls-150{fill:#35373a;}.cls-151{fill:#6986b3;}.cls-152{fill:#8c8c8c;}.cls-153{fill:#6c6c6c;}.cls-154{fill:#656565;}.cls-155{fill:#313335;}.cls-156{fill:#242729;}.cls-157{fill:#c1c3c3;}.cls-158{fill:#d8d9db;}.cls-159{fill:#47494b;}.cls-160{fill:#bec0c1;}.cls-161{fill:#a4a6a7;}.cls-162{fill:#8e9091;}.cls-163{fill:#656768;}.cls-164{fill:#7c7e7f;}.cls-165{fill:#6c6e6f;}.cls-166{fill:#ebeced;}.cls-167{fill:#969799;}.cls-168{fill:#5c5e60;}.cls-169{fill:#adaeb0;}.cls-170{fill:#c5c6c8;}.cls-171{fill:#444749;}.cls-172{fill:#36383a;}.cls-173{fill:#727476;}.cls-174{fill:#b2b4b4;}.cls-175{fill:#7e8082;}.cls-176{fill:#dbdcde;}.cls-177{fill:#dfe1e0;}.cls-178{fill:#c9cbca;}.cls-179{fill:#d8d8d8;}.cls-180{fill:#a6a7ab;}.cls-181{fill:#999a9d;}.cls-182{fill:#8e8f92;}.cls-183{fill:#848488;}.cls-184{fill:#7a7b7d;}.cls-185{fill:#868686;}.cls-186{fill:#dfdfdf;}.cls-187{fill:#2d4262;}.cls-188{fill:#3478b6;}.cls-189{fill:#58729d;}.cls-190{fill:#141b2d;}.cls-191{fill:#e3e3e3;}.cls-192{fill:#d6d6d6;}.cls-193{fill:#4d4d4d;}</style></defs><title>iphone</title><path class="cls-1" d="M306.53,309.5c-1.11-1-2.52-1.8-2-3.67,2.75-2.17,2.5-5.23,2.5-8.24q0-58.95,0-117.91,0-3.5,0-7a5.76,5.76,0,0,0-2.53-5.9l0-4c1.22-1.09,1.94-2.59,3-3.8a1,1,0,0,1,.94-.1c1.91,1.14,2.42,0,2.43-1.6.06-10.32,0-20.64,0-31,0-1.62-.57-2.65-2.45-1.71-1.12.09-2.36.6-3.06-.85,2-4.91,1.6-10.08,1.6-15.2q0-33.69,0-67.36c0-2.31-.31-4.67.67-6.89A6.36,6.36,0,0,0,310,28.76c-.16-5.8-.11-11.61,0-17.42-.06-11.06-.11-22.11,0-33.16,0-1.61,0-3.21,0-4.82q0-47.46,0-94.92-.17-11.17,0-22.36c0-2-.21-3.56-2.11-4.53a64.64,64.64,0,0,1,0-23.33c1.72-1.11,2-2.71,2.09-4.68,2.07-48.13.58-96.28,1-144.42a12.48,12.48,0,0,0-.35-3.95,6.27,6.27,0,0,0-.95-1.38c-1.7-2.63-.8-5.17.25-7.71a1.41,1.41,0,0,1,1.3-.51,2.67,2.67,0,0,1,.81,1.49c.12-1.1-1.18-2.95-.73-5a9.08,9.08,0,0,1,.26-1.38c1-3.84,2.27-7.63,2.07-11.68a4.47,4.47,0,0,1,.23-2,10.81,10.81,0,0,0,1.94-6.75,13.85,13.85,0,0,1,2.27-6c1.29-1.54,1.69-3.5,2.56-5.23s1.79-3.23,4.11-2.2c2.59,2.09,2.16,5.06,2.17,7.82.07,18.24,0,36.48,0,54.72,0,3.49,0,7,3.06,9.53,1.66,9.72,1.35,19.46.17,29.21a7,7,0,0,1-5.85,4.15c-3.4.48-4.34,2.55-4.29,5.58,0,1.67,0,3.33,0,5V1380.87c0,1.67.07,3.34,0,5-.1,3,1,5.07,4.09,6a10,10,0,0,1,5.84,4.44,10.39,10.39,0,0,1,1,4.84q.14,16.47,0,32.93a10.09,10.09,0,0,1-.69,3.91,3.66,3.66,0,0,1-3,1.93,20.18,20.18,0,0,1-2.58.13c-1.33,0-2.67,0-4,0l-3,0a4.3,4.3,0,0,0-2.07.55c-2.16,6.09.39,12,.74,18,.24,4.1,1.73,8,2.62,12,.39,1.79.9,3.55-.45,5.17-2.33.16-2.61-1.81-3-3.25-1.55-5.87-3.21-11.73-3.61-17.83-1.79-5.5,0-11.36-1.72-16.87a75.33,75.33,0,0,1-.21-8.5Q310,874.15,310,319c0-2.78.6-5.59-.26-8.31C308.51,310.63,307.23,310.79,306.53,309.5Z" transform="translate(-304.32 475.2)"/><path class="cls-2" d="M310.55-333.78c1.15,2.25-1.95,4.37-.21,6.64a2.91,2.91,0,0,1,.55,1.85c-.14,37.6,0,75.21-.06,112.81a30.62,30.62,0,0,1-.24,6c-.46,2.3-1.56,3.75-4.18,2.34,0-36.83.14-73.66-.06-110.49a181.69,181.69,0,0,1,5.59-46c3.75-14.74,10.66-27.7,18.64-40.47,10.28-16.45,23.67-29.85,38.91-41.36a149,149,0,0,1,36.4-19.93c10.9-4.21,21.87-7.92,33.29-10,8.21-1.49,16.61-1.91,25-2.48,4.55-.31,9-.24,13.58-.24q336.43,0,672.86-.07a240.11,240.11,0,0,1,52.23,5.25c10.43,2.31,19.87,7.37,29.57,11.8a137,137,0,0,1,33.9,22c12.77,11.29,24.25,23.83,32.37,39.27,4.8,9.14,9.89,18.21,12.87,28,4.3,14,8.13,28.28,7.35,43.42-.2,4,.29,8.41.29,12.61q.09,870.14.11,1740.28c0,9.27.25,18.61-1.24,27.69-2.14,13-5.08,25.86-10.11,38.17a134.63,134.63,0,0,1-16.61,29.79c-10.26,13.72-21.67,26.39-36.23,36.25-7.38,5-14.92,9.57-22.67,13.86-12.35,6.85-25.7,10.77-39.51,13.68-11.81,2.49-23.63,2.88-35.57,2.88-89.15,0-178.3-.18-267.44.16a212.48,212.48,0,0,1-39.54-4,27.46,27.46,0,0,0-5-.2c-18.49,0-37,.31-55.48-.14-10.44-.25-20.35,2.56-30.55,3.53-3,.28-6,.57-8.93.57-66.82,0-133.64-.25-200.45.27-12.83.11-25.24-2.37-37.89-2.77-3.4-.11-6.82.81-10.24,1.24-5.52.71-11.13,2.34-16.54,1.84a119,119,0,0,0-18.39-.28,11.94,11.94,0,0,1-6.53-1.27c-.17-2,1.4-2.42,2.77-3a156.3,156.3,0,0,1,23.9-.16c4.13,2.14,8,.49,11.92-.81,6.86,0,13.67-1.89,20.57-.8a6.93,6.93,0,0,1,2.18,0c1.69.4,3.24,1.53,5.12.94a7,7,0,0,1,2.78.15c3.3,1.06,6.57,2.46,10.08.76,3-.71,6-.47,9-.47q96.11,0,192.19.07a193.18,193.18,0,0,0,32.61-3,69.46,69.46,0,0,1,11.39-1c22.13,0,44.26-.24,66.38.15,6.08.11,12,2.45,18.08,3.13,2.24.84,4.59.68,6.92.68q147.19,0,294.4-.09c12.82,0,25.34-3,37.62-6.74a150.88,150.88,0,0,0,39.74-19.28,145.09,145.09,0,0,0,36.84-34.68,149.11,149.11,0,0,0,19.35-34.67,160,160,0,0,0,10.38-42.43c.22-2.33.25-4.65.25-7q0-883-.06-1766.08a129.06,129.06,0,0,0-8.23-44.26c-10-25.89-25-48.2-46.88-65.74a169.33,169.33,0,0,0-30.41-18.95,149.24,149.24,0,0,0-37.53-12.61,160.83,160.83,0,0,0-32.53-3.44q-344.35,0-688.69-.07a158.7,158.7,0,0,0-43.72,5.85c-29.63,8.43-55.93,23-76.86,46.08-12.46,13.76-23.07,28.83-29.73,46.3-3.17,8.32-6.43,16.71-6.81,25.8-.23,2.24-1.05,4.38-1.26,6.62C310.88-338.18,311.94-335.67,310.55-333.78Z" transform="translate(-304.32 475.2)"/><path class="cls-3" d="M462.39,1586.68l-2,2c-4.2,1.4-8.46.56-12.59-.08-16.38-2.54-32.4-6.61-47.47-13.57-19.51-9-37.07-21-51.79-36.79-14-15-25.29-32-32.74-51.22-5.38-13.91-7.89-28.61-9-43.42-.31-4.16-.51-8.48-.5-12.75q.12-556.68.08-1113.35c0-2.67.07-5.33.11-8l3.81.42c1.08,2,.53,4.25.53,6.36q0,558.19,0,1116.38a48.57,48.57,0,0,0,.5,8.44c0,.6,0,1.21,0,1.82.1,2.26-.26,4.55.36,6.79a45.25,45.25,0,0,0,.61,4.78c1.15,12.54,5.75,24,10.66,35.46a133.24,133.24,0,0,0,23.95,37.1,13.67,13.67,0,0,1,2.36,3.19c6.27,8.7,14.42,15.51,22.6,22.28,5.64,4.67,12.37,7.66,18.4,11.59,5.33,3.48,11.32,5.22,16.53,8.61,2,1.3,4.34,1.59,6.64,2a7.58,7.58,0,0,1,1.39.47c9.55,3.88,19.33,6.86,29.66,7.75a13.33,13.33,0,0,1,1.41.08C451.32,1584.8,457.35,1583.52,462.39,1586.68Z" transform="translate(-304.32 475.2)"/><path class="cls-2" d="M305.41-25.24c1.29-2,1-4.15,1-6.31q.07-45.46.12-90.95c1.64-.83,3.13-.92,4.24.87.3,31.38,0,62.77.13,94.16a2.27,2.27,0,0,1-1.32,2.22C308.19-24.7,306.8-24.08,305.41-25.24Z" transform="translate(-304.32 475.2)"/><path class="cls-4" d="M304.41,117.81q0-63.49,0-127c2-1,3.05.14,3.9,1.74.61,13.76,1.16,27.53-.3,41.29a46,46,0,0,0-.14,5q0,38.43,0,76.87C307.59,117.8,306.26,118.23,304.41,117.81Z" transform="translate(-304.32 475.2)"/><path class="cls-5" d="M304.44,302.81v-102c1.84-.4,3.17,0,3.45,2.15q0,47.85,0,95.7C307.85,300.7,309.14,304.39,304.44,302.81Z" transform="translate(-304.32 475.2)"/><path class="cls-6" d="M311.38-327.13c1.7,1.44,1,3.4,1,5.14,0,42.87.18,85.74-.12,128.61,0,7.69-1.1,15.41-.75,23.71l-3-2.5c-1.76-1.5-1.39-3.58-1.46-5.52-.17-5.27.25-10.55-.27-15.8a8.82,8.82,0,0,0-2.26-3.72l.1-3.78c.74-1,2.14-1.26,2.77-2.41a1.8,1.8,0,0,1,1.21,0c2.84.22,1.43-2,1.83-3.22q0-56.61,0-113.18C310.43-322.28,310-324.83,311.38-327.13Z" transform="translate(-304.32 475.2)"/><path class="cls-7" d="M304.44,302.81c2.95.21,3-1.72,3-3.89q-.07-48.56-.11-97.12c-2.43-3.64-1-7.73-1.37-11.61q0-6.7,0-13.4c0-1.81.17-3.68-1.45-5l0-3c2.62-1.73,3.12.42,3.85,2.12q0,64.29,0,128.58c0,2.78,1.05,6.47-3.89,6.36Z" transform="translate(-304.32 475.2)"/><path class="cls-8" d="M307.41,116.81l-.07-125a8.13,8.13,0,0,1-.82-6.91,2.64,2.64,0,0,1,1.2-1.35,1.65,1.65,0,0,1,1.47,1c1.53,8.76.36,17.59.68,26.39.06,5.75,0,11.51,0,17.27,0,2,.06,4-1.37,5.61,0,27.37-.1,54.73-.06,82.1,0,3.15-.4,5.92-3.07,7.93-1.51-1-1-2.57-.94-4A30,30,0,0,0,307.41,116.81Z" transform="translate(-304.32 475.2)"/><path class="cls-9" d="M308.43-203.12l-.47-.06-.45.13a.73.73,0,0,1-1.11-.21c0-.3,0-.6,0-.9,3.94.17,3-2.77,3-4.89q.06-36,0-71.9c0-13.31,0-26.63,0-39.94,0-1.77-.58-3.69.82-5.26,1.19,1.47.61,3.21.61,4.81q0,58.24,0,116.48C310.83-203.21,310.23-202.32,308.43-203.12Z" transform="translate(-304.32 475.2)"/><path class="cls-10" d="M307.45-195.23c1.92,5.62.48,11.42.93,17.11.16,2,.09,4,.12,6q0,12,0,24c1.72,2.12,1.18,4.66,1.33,7.08.38,6-.83,12.11.64,18.09-.07.26-.14.53-.22.79l-3.73-.31c-1-1-2.3-1.86-2-3.59,1.56-1.39,1.41-3.24,1.42-5.06,0-5.46,0-10.92,0-16.38-.07-7.44-.09-14.87,0-22.29,0-2.76-.1-5.53,0-8.29,0-3.65-.11-7.31,0-11C306.05-191.23,305.64-193.49,307.45-195.23Z" transform="translate(-304.32 475.2)"/><path class="cls-11" d="M307.35-170.15l0,23c-.8.8-1.56,1.74-2.89,1v-25C305.78-171.89,306.54-171,307.35-170.15Z" transform="translate(-304.32 475.2)"/><path class="cls-12" d="M304.44-146.17l2.89-1c0,5.89,0,11.78.08,17.67,0,2.1-.37,3.59-2.89,3.41Q304.48-136.13,304.44-146.17Z" transform="translate(-304.32 475.2)"/><path class="cls-13" d="M304.49,171.76c2.47-.17,3,1.24,2.93,3.37-.09,4.89-.06,9.78-.08,14.67-1.31.67-2.09-.2-2.9-1Z" transform="translate(-304.32 475.2)"/><path class="cls-14" d="M308.46,124.68c.13-.85.33-1.7,1.42-1.65,1.33,0,1.54,1.08,1.54,2.1q0,17.16,0,34.3c0,1-.19,2.15-1.5,2.12-1.75,0-1.35-1.51-1.47-2.6,1.82-.06,1.95-1.23,1.94-2.7q-.06-14.44,0-28.91C310.41,125.9,310.35,124.66,308.46,124.68Z" transform="translate(-304.32 475.2)"/><path class="cls-15" d="M304.44,188.8l2.9,1v12l-2.9-1Z" transform="translate(-304.32 475.2)"/><path class="cls-16" d="M307.35-189.1v11c-1.32.64-2.1-.22-2.9-1v-10A2,2,0,0,1,307.35-189.1Z" transform="translate(-304.32 475.2)"/><path class="cls-17" d="M304.45-179.18l2.9,1v8l-2.91-1C304.44-173.83,304.45-176.5,304.45-179.18Z" transform="translate(-304.32 475.2)"/><path class="cls-18" d="M307.35-189.1l-2.89-.07q0-4,.05-8c1.42,0,2.91-.08,2.94,2S307.38-191.14,307.35-189.1Z" transform="translate(-304.32 475.2)"/><path class="cls-19" d="M307.37-15.12l0,6.94-2.89-1q0-3,0-6A2,2,0,0,1,307.37-15.12Z" transform="translate(-304.32 475.2)"/><path class="cls-1" d="M308.35-16.11l-.91-.1c-1.1,0-2.19,0-2.95-1l0-3.95c1.48-.9,1.72-3.45,4.15-3.09a3.3,3.3,0,0,1,.78,1.95C309.05-20.24,309.72-18,308.35-16.11Z" transform="translate(-304.32 475.2)"/><path class="cls-20" d="M308.34-24.24c-1,1.33-1.28,3.68-3.87,3.08-.16-1.47-.33-2.94.94-4.08L308.5-26A1.19,1.19,0,0,1,308.34-24.24Z" transform="translate(-304.32 475.2)"/><path class="cls-21" d="M307.53,159.05c.07,2.13-.06,4.09-3,3.8C304,160.37,305.55,159.54,307.53,159.05Z" transform="translate(-304.32 475.2)"/><path class="cls-22" d="M308.36,170.89c-1-1.2-2-2.5-3.85-2.12l0-2C307.4,166.62,308.66,168,308.36,170.89Z" transform="translate(-304.32 475.2)"/><path class="cls-19" d="M307.41,116.81c.25,2.21-.77,3.19-3,3,0-.67,0-1.35,0-2Z" transform="translate(-304.32 475.2)"/><path class="cls-23" d="M304.49-17.21c1.08,0,2.24-.15,2.95,1,0,.36-.05.73-.07,1.09l-2.88-.09Z" transform="translate(-304.32 475.2)"/><path class="cls-24" d="M306.4-203.26l1.11.21c-.1,1.91-1.49,2-2.9,2.06C304.6-202.22,305.6-202.67,306.4-203.26Z" transform="translate(-304.32 475.2)"/><path class="cls-9" d="M329.25-272.12v-29c-2.43-4.94-1.2-10.12-1-15.22a20.72,20.72,0,0,0,.78-7.43c.47-14.47,4.66-28,10.4-41.15A130.86,130.86,0,0,1,351-386.3c6.15-7.86,12.36-15.65,19.73-22.44a141.83,141.83,0,0,1,17.1-13.49,158.56,158.56,0,0,1,16.27-9.18,150.73,150.73,0,0,1,18.35-7.13c6.68-2.21,13.59-3.45,20.46-4.83,5.29-.2,10.48-1.61,15.82-1.22,6.2-.18,12.41-.16,18.62,0,5.66-.15,11.33-.16,17,0q9.48-.24,19,0,9-.24,18,0,9.49-.24,19,0,8.55-.24,17.1,0,11.48-.27,23,0c9.3-.18,18.59-.2,27.89,0,7.33-.16,14.66-.18,22,0,6-.15,12-.17,18,0,5.69-.15,11.38-.16,17.07,0q10-.25,20,0,12.07-.28,24.14,0c33.09-.34,66.18-.09,99.27-.14,9.47,0,19-.2,28.42.13q31-.31,62.09,0,56.44-.33,112.88,0,32-.31,63.94,0c24.78-.24,49.57-.1,74.35-.07a72.16,72.16,0,0,1,9.4,1.1c15.53,2.4,30.63,6.24,44.66,13.62,2.21,1.16,4.39,2.36,6.51,3.68,19.69,10.75,33.91,27.09,46.23,45.37a134.71,134.71,0,0,1,19.35,58,20.77,20.77,0,0,0,.72,7.36c.65,4.74.36,9.5.34,14.26,0,.63,0,1.24,0,1.86q.29,15.3,0,30.58a80,80,0,0,1,.15,8.48q0,133.77,0,267.53c0,3.28.6,6.69-1.24,9.76-5.42,1.54-5.84,5.55-5.83,10.42q.18,84.85,0,169.7c0,3.06,1.34,6.78-2.39,9-1.63-1.31-1.59-3.21-1.69-5-.13-2.33-.06-4.67-.06-7q0-251.56.14-503.14c.06-29.95-7.77-56.81-25.56-80.8-13.16-16.83-29.73-29-50-35.91-6.44-2.21-13.21-.47-19.94-.78,20.68,8.27,39,19.89,53.94,36.5,19,21.94,28.61,47.42,28.61,76.44,0,139-.53,277.9.11,416.85,2,442,.25,884,.9,1326a65,65,0,0,1-.17,8.49c-.22,1.66.09,3.89-2.58,4.11-2.18-2.77-1.49-6.06-1.49-9.15q-.06-101.44,0-202.87V1111.77c0-2,0-4,.15-6-.24-2.83-.14-5.66-.14-8.49q0-439.69,0-879.39v-1.5c0-9-.29-9.22-8.24-9.06a6.64,6.64,0,0,1-4.25-1.21c-2.14-3-1.47-6.42-1.47-9.69q-.06-135.24,0-270.47V-201.51c0-1.84,0-3.67,0-5.5-.22-7.33-2.24-9.3-9.73-9.49-1.66-.05-3.33,0-5,0H381.53c-14.24,0-15.49,1.23-15.49,15.28q0,197.48,0,395c0,3.43.69,7-1.27,10.22a6.53,6.53,0,0,1-4.68,1.44c-4.08-.11-5.11,2.24-5,5.74.05,1.66,0,3.33,0,5q0,259.32,0,518.64c0,2,0,4-.15,6,.26,3,.15,6,.15,9v527.89c0,2,0,4-.15,6,.33,17.47.11,35,.13,52.43q.06,47.68,0,95.38c0,2.78.5,5.71-1.44,8.18-2.46.06-2.34-2-2.59-3.47a45.49,45.49,0,0,1-.22-7.48q0-307.68,0-615.36c0-1.84,0-3.67.15-5.5-.26-3-.14-6-.14-9q0-338.64,0-677.27a58.59,58.59,0,0,1,.15-6.49c-.22-3.33-.12-6.66-.12-10,0-75.78-.55-151.57.16-227.34.63-65.94.58-131.88,1-197.82.09-15.67,4.59-30.56,11.56-44.62a131,131,0,0,1,24.44-33.14,132.27,132.27,0,0,1,20.66-16.6c-7.86-.07-15.49-2.4-23,3.75-14.89,12.24-27.42,26-35.24,43.82A132.8,132.8,0,0,0,339.25-322c-.67,2.46-.41,5-.41,7.45q0,73.54,0,147.08c0,2.78.56,5.68-1,8.29a7.32,7.32,0,0,1-8.66.13c-1.55-2.2-1.32-4.74-1.32-7.21q0-48.83-.05-97.63A26,26,0,0,1,329.25-272.12Z" transform="translate(-304.32 475.2)"/><path class="cls-25" d="M329.25-272.12q.08,47.24.17,94.47c0,6.16.1,12.32.16,18.48,2.09,2.81,1.45,6.08,1.45,9.19q0,102.91,0,205.85,0,71.94,0,143.89c0,2,0,4-.15,6,.26,3,.14,6,.14,9q0,260,0,520c0,2,0,4-.15,6,.26,3.16.14,6.33.14,9.49q0,263.71,0,527.43c0,2,0,4-.15,6,.3,35.86.1,71.73.08,107.59,0,2,0,4-1.75,5.49-2.08-2-4.43-3.73-7.33-3.85s-3.77-1.45-3.51-4.08c.11-1.16,0-2.34,0-3.5q0-823.42-.05-1646.85c0-4.71-.23-8.74,6.44-7.71C326.71-269,328.06-270.7,329.25-272.12Z" transform="translate(-304.32 475.2)"/><path class="cls-26" d="M320.41,1438.69l4,0a7.78,7.78,0,0,1,2,5.52c-.37,15.84,4,30.67,10.81,44.61,22,45.06,58.68,69.7,108,76.4,8.07,1.09,16.22.84,24.29.84q339.36.21,678.7.17c21.23,0,41.88-2.62,61.21-11.69,40.28-18.88,65.78-49.83,75.5-93.53,1.62-7.32.81-14.88,2.82-22.11,4.27-1.7,5.6-1,5.84,3.66.47,8.86-1.41,17.47-3.46,26a134.77,134.77,0,0,1-13.42,34.09,136.86,136.86,0,0,1-48.63,49.81,143.14,143.14,0,0,1-59.14,19.76c-10,1.06-19.94.81-29.91.81q-336.3.07-672.61.1c-23.66,0-46.3-4-67.78-14.07-40.14-19.43-66.08-50.55-76.77-94-1.7-6.9-3.06-14-2.68-21.21C319.21,1442.05,319,1440.17,320.41,1438.69Z" transform="translate(-304.32 475.2)"/><path class="cls-27" d="M1288.25,1438.71c-.15,30-10,56.39-29,79.49-21.55,26.2-49.07,41.9-82.52,47.71-8.85,1.54-17.69,1.65-26.49,1.65q-341.29.23-682.58.1c-18.22,0-36.22-1.45-53.55-7.88-38.67-14.36-66.33-40-81.74-78.56-4.16-10.41-6.33-21.28-7.69-32.27-.4-3.24,0-6.8-.28-10.22h2c1.8,2.23,1.81,5,2,7.6,2.44,31.29,15.62,57.52,37.54,79.51,9.69,9.72,21.1,17.27,33.19,23.74,2.32,1.24,4.8,1.2,7.29,1.42,10.76,4.09,21.49,8.21,33,9.9a176.27,176.27,0,0,0,25.86,2.21q341.13,0,682.27.05c26.78,0,51.86-5.69,74.86-19.65,18.9-10.86,33.31-26.16,44.4-44.79a123.51,123.51,0,0,0,17.35-54.11,11,11,0,0,1,1.93-6.1A1.85,1.85,0,0,1,1288.25,1438.71Z" transform="translate(-304.32 475.2)"/><path class="cls-9" d="M312.48-345.95c-.46-5.69,1.11-11.14,2.72-16.38a150.79,150.79,0,0,1,12-28A120.92,120.92,0,0,1,339-408.07c7.32-9.15,14.93-18,24.14-25.44a176.08,176.08,0,0,1,36.42-22.83,217.52,217.52,0,0,1,24.78-9.47,89.64,89.64,0,0,1,26.42-4.86c239.51-3.38,479-.56,718.55-1.28,7.19,0,14.7.44,21.75,3.4,3.25,1.36,7.19,1,10.72,1.8,10.89,2.58,20.84,7.48,31,12.21,19.93,9.33,36.33,23,50.12,39.77,7.41,9,14,18.76,18.44,29.83,1.85,4.62,5.61,8.46,5.93,13.79a1.58,1.58,0,0,1,0,2.16c-2.14.19-2.75-1.37-3.2-2.94a15.2,15.2,0,0,0-3.56-6.22c-6.6-12.14-13.1-24.33-22.17-34.89a158.91,158.91,0,0,0-31.44-28.26,155.39,155.39,0,0,0-55.3-23.31c-9.87-2.11-19.92-3.56-30.1-3.19-2.34.08-4.67.05-7,.05q-339.6,0-679.19-.13c-26.46,0-51.57,4.89-75.34,16.09-13.23,6.23-25.72,14-36.44,24.12-3.28,4.33-7.39,7.89-11.16,11.77-1.15,1.08-2.3,2.18-3.4,3.32-1.72,1.69-3.45,3.36-5.05,5.17-2.54,3.38-5.52,6.43-7.62,10.13a161.12,161.12,0,0,0-11.14,18.54c-2.19,4.49-4.65,8.86-6.44,13.54l-2.25,6.07a11.19,11.19,0,0,1-1.86,5.93l-.06,2.1C314.13-349.27,315-346.94,312.48-345.95Z" transform="translate(-304.32 475.2)"/><path class="cls-28" d="M329.24,1396.7q.09-52.52.17-105c0-2.65.11-5.31.17-8a6.39,6.39,0,0,1,8.3.13c1.41,2.48.92,5.2.92,7.83q0,74,0,147.9c.05,2.61-.3,5.24.49,7.79a157.06,157.06,0,0,0,10.79,41.48A126.05,126.05,0,0,0,363,1512.19c6.47,10.15,15.12,18.25,24.23,25.93,1.4,1.34,3.17,2.21,4.63,3.46,1.3,1.12,3,2.2,1.5,4.34-7.57-2.55-13.55-7.68-19.29-12.81-24.42-21.84-39.77-48.79-44.35-81.46-.6-4.29-2.51-8.71-.4-13.16Z" transform="translate(-304.32 475.2)"/><path class="cls-29" d="M348.36-413.71a6.34,6.34,0,0,1,2.72-2.82,2.78,2.78,0,0,1,1.25,1.37,142.45,142.45,0,0,1,0,28.83c-6.93,11.74-13.51,23.63-17.3,36.86-2.36,8.26-4.79,16.5-4.67,25.22-1.15,2.25.06,4.75-.75,7q-.19,8-.38,16.07c-3.74-.7-3.86-3.47-3.86-6.47q.06-29.92,0-59.86c0-2.09.59-4.45-2-5.68-1.09-2.12.56-3.59,1.24-5.29a114.47,114.47,0,0,1,11.21-18.81c2-3.66,5.08-6.55,7.29-10.06C344.9-409.44,347.52-410.85,348.36-413.71Z" transform="translate(-304.32 475.2)"/><path class="cls-30" d="M310.58,1442.63c-.06-2.33-.16-4.66-.16-7q0-559.86,0-1119.72c0-2,0-4-.07-6,0-1.05-1.8-1.14-1.33-2.37.11-.28.83-.52,1.21-.45,1,.2,1.16,1.08,1.18,1.93q.06,3,.06,6,0,561.08,0,1122.15c0,.5,0,1,0,1.5C311.79,1440.13,313,1441.78,310.58,1442.63Z" transform="translate(-304.32 475.2)"/><path class="cls-31" d="M318.4,1475.7c-.25-5.83-2.82-11.19-3.44-16.94-.58-5.4-1.09-10.82-1.51-16.23-.12-1.55-.53-3.51,2-3.84,2.53,4.07,1.47,8.76,2,13.11a138.09,138.09,0,0,0,65,100.68,19,19,0,0,1,4.52,2.6c3.63,3.55,8.39,5.11,12.84,7.23,20.57,8.83,42,13.5,64.42,13,8-.17,16-.06,23.95,0,2.13,0,4.37-.34,6.23,1.19a1.5,1.5,0,0,1-.21,1.71,6.42,6.42,0,0,1-5,1.79c-11.69,0-23.38.34-35.06-.16-8.66-1.33-17.51-1.43-26-3.8-1.11-.31-2.23-.64-3.35-.92a152.81,152.81,0,0,1-40.46-16.31c-5.8-3.63-11.58-7.29-17.06-11.4-1.81-1.44-3.4-3.17-5.44-4.33-16.72-15.41-30.61-32.94-39.91-53.86-1-3.35-2.7-6.43-3.55-9.82C318.06,1478.18,317.19,1476.93,318.4,1475.7Z" transform="translate(-304.32 475.2)"/><path class="cls-32" d="M329.27,1438.49c2.05,28.13,11,53.71,28.64,75.9,9.94,12.51,21.3,23.55,35.48,31.32,4.23,1,8.28,2.29,11,6-5.74,1.15-9.44-3.2-13.6-5.59a127.81,127.81,0,0,1-50.43-52.76,114.48,114.48,0,0,1-11.86-35.67c-1-6.29-1.41-12.66-2.09-19Z" transform="translate(-304.32 475.2)"/><path class="cls-33" d="M320.41,1438.69c-.26,30.69,10.64,57.32,29.52,81,12.42,15.59,27.88,27.38,45.5,36.49a15.91,15.91,0,0,1,2,1.45.86.86,0,0,1-.15,1.24c-4.18-.08-7.29-2.77-10.76-4.53a38.29,38.29,0,0,0-5.76-2.8,137.34,137.34,0,0,1-28.45-23.82,135,135,0,0,1-27.81-45.56,114.82,114.82,0,0,1-7.06-30.37c-.35-4.37-2.38-8.74,0-13.11Z" transform="translate(-304.32 475.2)"/><path class="cls-34" d="M317.43,1438.72c.85,29.72,10.17,56.44,28.47,79.93,9.94,12.76,21.54,23.71,35.5,32,1,.76,2.18,1.43,1,2.94-6.62-2.54-11.84-7.26-17.11-11.68-19.34-16.21-33.69-36.08-42.18-59.94-5-14-7.94-28.38-7.74-43.32Z" transform="translate(-304.32 475.2)"/><path class="cls-30" d="M310.54-204.17q-.06-58-.13-116c0-2-.1-4-.15-6l.08-1h1l0,122.94C311.09-203.7,310.82-203.67,310.54-204.17Z" transform="translate(-304.32 475.2)"/><path class="cls-35" d="M308.35-16.11a9.68,9.68,0,0,1,.09-6.09,2.14,2.14,0,0,1,3,0v34c-1.46,1.11-2.23.21-2.9-1Z" transform="translate(-304.32 475.2)"/><path class="cls-30" d="M310.36-26.19q0-48-.1-96l.17.23.25-.11c.17-.58.42-.59.74-.1q0,48,0,96A.63.63,0,0,1,310.36-26.19Z" transform="translate(-304.32 475.2)"/><path class="cls-36" d="M311.42-122.17a3.66,3.66,0,0,0-.74.1c-1.7-1.13-2.8-2-2.54-4.79.66-7,.31-14.19.37-21.29,2.55-.86,3,.29,3,2.65C311.33-137.73,311.42-129.95,311.42-122.17Z" transform="translate(-304.32 475.2)"/><path class="cls-37" d="M308.51,10.81l2.9,1c0,6.44-.09,12.89,0,19.33.05,2.32-.35,3.53-2.93,2.65Q308.52,22.31,308.51,10.81Z" transform="translate(-304.32 475.2)"/><path class="cls-38" d="M318.4,1475.7c.24,5,3.61,9,4,13.94a.75.75,0,0,1-.14,1.31c-5.73-11.45-8.88-23.66-10.71-36.25a1.12,1.12,0,0,1,1.79,0C314.16,1461.91,315.33,1469,318.4,1475.7Z" transform="translate(-304.32 475.2)"/><path class="cls-39" d="M312.48-345.95c1.33-1.46.29-3.86,2-5.15.81,4.3-.32,8.24-2.25,12-.82.12-1.21-.18-1-1C311.52-342.09,310.92-344.25,312.48-345.95Z" transform="translate(-304.32 475.2)"/><path class="cls-40" d="M325.39-378.16l-2,5c-2.85,1.89-1.26,6.43-4.73,7.95.82-5.13,3.21-9.64,5.62-14.13C325-379.2,325.06-378.58,325.39-378.16Z" transform="translate(-304.32 475.2)"/><path class="cls-41" d="M313.37,1454.7h-1.79c-.11-1.57-.21-3.13-.32-4.7-.81-2,.17-4.27-.68-6.3v-1.07c1.28-1.09.63-2.63.89-4C313.72,1443.83,311.27,1449.53,313.37,1454.7Z" transform="translate(-304.32 475.2)"/><path class="cls-42" d="M310.36-26.19h1l0,4-3,0c0-.68-.06-1.36-.1-2s.1-1.2.16-1.79Z" transform="translate(-304.32 475.2)"/><path class="cls-43" d="M314.58-353.2c-.13-2.22,1.05-4,1.86-5.93C317.12-356.75,317.34-354.51,314.58-353.2Z" transform="translate(-304.32 475.2)"/><path class="cls-39" d="M312.39-338.26v7.09l-.62,0-.5-3.22C311.12-335.82,309.82-337.6,312.39-338.26Z" transform="translate(-304.32 475.2)"/><path class="cls-9" d="M312.39-338.26c-1.71.91-.93,2.54-1.12,3.89a3.15,3.15,0,0,1-.72.59c.06-2.13-.81-4.36.68-6.33l1,1A1.86,1.86,0,0,1,312.39-338.26Z" transform="translate(-304.32 475.2)"/><path class="cls-44" d="M1307.24-369.15v-2c4,5.59,4.5,12.41,5.83,18.74,5.47,26.11,3.07,52.64,3.07,79q.18,856.58,0,1713.15c0,16.86-3.93,32.93-10,48.77a162.1,162.1,0,0,1-14,27.87,137.81,137.81,0,0,1-26.28,30.81c-14.18,12.38-29.93,22.49-47.51,29.22a165.88,165.88,0,0,1-29.39,8c-11.42,2.11-22.71,2.27-34.1,2.27q-139.71.1-279.42,0c-2.07,0-4.36.84-6.19-1a3,3,0,0,1,2-2c2.79-.67,5.63-.4,8.45-.4q141.78,0,283.56,0a135.23,135.23,0,0,0,40.76-5.91c1.9-.59,3.85-1,5.78-1.43a14.11,14.11,0,0,0,1.46-.72c3.55-1.36,7.33-2.14,10.78-3.82.39-.22.8-.41,1.21-.6a28.8,28.8,0,0,0,5.37-2.5,8,8,0,0,1,1.21-.6c6.71-3,13.09-6.48,18.45-11.6a5.16,5.16,0,0,1,1.7-1.22c5.23-2.22,9-6.37,13-10.12a12.38,12.38,0,0,1,1-.91,13.5,13.5,0,0,0,3.44-3,5.83,5.83,0,0,1,.94-.92,21.09,21.09,0,0,0,5.88-6,8.85,8.85,0,0,1,.77-1c1.57-1.75,3.45-3.25,4.38-5.52a5.5,5.5,0,0,1,1.26-1.54,9.67,9.67,0,0,0,3.68-4.62,9.12,9.12,0,0,1,2.29-3.44c6.71-8,12-16.88,14.76-27.09a9.55,9.55,0,0,1,1.38-3.09c6-15.15,10-30.82,10-47.09q.13-883.11.09-1766.22c0-9.39-1.76-18.52-3.71-27.62a62.49,62.49,0,0,1-1.35-7.38,40.89,40.89,0,0,0-1-7A1.66,1.66,0,0,1,1307.24-369.15Z" transform="translate(-304.32 475.2)"/><path class="cls-9" d="M870.31,1584.68l-1,1c-4.71-.66-9.53-.51-14.08-2.44-3.78-1.59-7.89-.39-11.81-.44-21.62-.24-43.26-.52-64.87.17-7.3.23-14.7,2.11-22,3.24a43.79,43.79,0,0,1-6.44.46H545.19c-2.32,0-4.69-.34-6.81,1-1.16-.64-2.56-.24-3.68-.76-1.46-.69-2.49-1.7-.46-3.05,1.65-.59,3.35-.36,5-.37,3.67-.27,7.34-.24,11-.24q100.69,0,201.39,0c8.53.17,16.7-2.4,25.07-3.55a98.42,98.42,0,0,1,12.35-.42c18.94-.25,37.89.24,56.85-.26,6.7-.18,13.39,2.09,20.11,3.06a5.39,5.39,0,0,1,1.7-.08C869.06,1582.44,870.54,1582.74,870.31,1584.68Z" transform="translate(-304.32 475.2)"/><path class="cls-45" d="M462.39,1586.68c-5.69-.88-11.54-.83-17-3,0-1.93,1.57-2.11,2.79-1.94,14.44,1.94,29-.49,43.41,1a4.67,4.67,0,0,1,2.76.87c.41,5.64-3.42,3.13-6,3.1Z" transform="translate(-304.32 475.2)"/><path class="cls-3" d="M520.38,1584.68l-22,1c-.05-.23-.11-.46-.17-.68a4.09,4.09,0,0,1,2.7-2.15,12.4,12.4,0,0,1,2.9-.43c2.29.07,4.54-.34,6.82-.39C513.88,1582.9,517.82,1581.25,520.38,1584.68Z" transform="translate(-304.32 475.2)"/><path class="cls-9" d="M520.38,1584.68c-3.12-1.75-7,.06-10-2a2.43,2.43,0,0,1,1.58-1.8c4.16-.55,8.17.34,12.17,1.3a1.83,1.83,0,0,1,.71,1.45c-.39,1.37-1.13,1.91-2.46,1Z" transform="translate(-304.32 475.2)"/><path class="cls-3" d="M488.38,1586.68c1.87-1.08,4.78,1,6-2a1.35,1.35,0,0,1,1.16-.45,4.36,4.36,0,0,1,2.84,1.45h0C495.18,1587.27,492,1589.45,488.38,1586.68Z" transform="translate(-304.32 475.2)"/><path class="cls-3" d="M533.37,1584.68c.43,3.06,4.41.21,5,3a11.54,11.54,0,0,1-9-2,4.12,4.12,0,0,1,2.81-1.41A1.69,1.69,0,0,1,533.37,1584.68Z" transform="translate(-304.32 475.2)"/><path class="cls-9" d="M532.38,1584.68c-.72,1.17-1.9,1-3,1h-3a1.62,1.62,0,0,1-1.17-2.11c1.4-1,3-.23,4.53-.58A2.45,2.45,0,0,1,532.38,1584.68Z" transform="translate(-304.32 475.2)"/><path class="cls-3" d="M525.38,1583.68l1,2c-1.84,1.69-2.84,0-4-1a2.07,2.07,0,0,0,2-1A.61.61,0,0,1,525.38,1583.68Z" transform="translate(-304.32 475.2)"/><path class="cls-46" d="M532.38,1584.68l-3-1c-1.66-.41-3.43-.2-5-1-4.41.64-8.63-1.11-13-1-2.44,1.56-5.61.22-8,2h-3c-1.74-.06-3,2.28-5,1h-1c-10.55-1.79-21.19-1.1-31.78-.73a107.73,107.73,0,0,1-13.12-.81c-1.48-.13-2.88-.92-4.09.54h0c-10.74-1.08-20.84-4.63-31-8h-1c-5.72-2.87-11.85-4.84-17.41-8-1.26-.72-3.47-.93-2.31-3.36,1.2-.56,2.24,0,3.29.48,8.33,4.09,17.09,7,25.9,9.84,1.9.29,3.66,1.06,5.52,1.47,26,6.61,52.25,6.7,78.61,2.77a49.06,49.06,0,0,1,12.92-.24c2.32.91,4.85.55,7.22,1.2a129,129,0,0,0,17.35,1.51q99.16-.11,198.33,0a132.21,132.21,0,0,0,24.26-2.39,94.42,94.42,0,0,1,17.82-1.67c20.81.08,41.63,0,62.44,0,2.83,0,5.68-.15,8.39.87.58.09,1.16.21,1.73.34,1.31.37,2.57.94,3.91,1.29,2,1,4.83.18,6,2.91-1,1.31-2.3,1-3.63.67a106.72,106.72,0,0,0-25.86-2.8c-15.6.46-31.25.61-46.84,0-11-.46-21.54,2.14-32.25,3.61-2.15.3-4.26.46-6.4.55-1.72-1-3.59-.49-5.38-.49q-101.34,0-202.66,0c-2,0-4-.25-5.93.51h-6Z" transform="translate(-304.32 475.2)"/><path class="cls-45" d="M393.51,1564.34c4.29,3.87,9.44,6.11,14.84,7.86,2.08.67,4.09,1.25,5,3.48a12.58,12.58,0,0,1-8.68-3c-2.62-2.24-6.3-2-9.41-3.68-17.13-9.41-32.5-21-45.56-35.5a12.1,12.1,0,0,1-1.39-2.56c1.68-1.06,2.27.62,3.05,1.37,3.43,3.27,6.74,6.67,10.1,10a69.92,69.92,0,0,1,6.29,5.09c5.29,3.62,10.42,7.46,16,10.62C386.93,1560.29,391.14,1560.92,393.51,1564.34Z" transform="translate(-304.32 475.2)"/><path class="cls-47" d="M361.36,1542.7l-13-11.79c-9.92-11.55-19-23.67-25.24-37.67-.33-.74-.56-1.52-.83-2.29,0-.44.09-.87.14-1.31,5.45,9,9.91,18.57,16.35,27.06,7.15,9.42,15.83,17.34,23.84,25.91A.73.73,0,0,1,361.36,1542.7Z" transform="translate(-304.32 475.2)"/><path class="cls-45" d="M414.4,1575.68c5-.86,8.93,2.57,13.55,3.43,5.89,1.11,11.63,3,17.44,4.57C434.31,1583.92,424.13,1580.67,414.4,1575.68Z" transform="translate(-304.32 475.2)"/><path class="cls-1" d="M310.58,1443.7c1.46,2,.74,4.17.68,6.3A11.05,11.05,0,0,1,310.58,1443.7Z" transform="translate(-304.32 475.2)"/><path class="cls-48" d="M310.54-204.17l.81,0c0,1.09.41,2.44-1.15,2.8-1.29.3-1.62-.69-1.77-1.73Z" transform="translate(-304.32 475.2)"/><path class="cls-28" d="M353.4,1439.69v-156a10.64,10.64,0,0,1,11.38,0c1.47,2.24,1.22,4.79,1.23,7.27.05,12.49,0,25,0,37.48a21.58,21.58,0,0,0,.74,6.92c.88,2.6,2.52,4.22,5.37,4.51,2.16.21,4.33.21,6.49.21h855.48c11.42,0,12.48-1.06,12.48-12.64q0-106.2,0-212.39c0-3.13-.54-6.36,1.19-9.29a15.38,15.38,0,0,1,14.41,0q0,168,0,336c1.72,1.84,1.12,4,.86,6.12a121.35,121.35,0,0,1-17.81,50.65c-9.16,13.82-20.07,26-33.79,35.48-23.54,16-49.44,24.33-78,24.33q-325.11,0-650.23,0a140.46,140.46,0,0,1-70.59-18.75c-12.39-7.77-23.78-16.75-33-28.24-6.31-7.19-10.9-15.5-15.57-23.78-7.06-13.55-10.13-28.25-12.45-43.17C351.42,1442.53,351.26,1440.68,353.4,1439.69Z" transform="translate(-304.32 475.2)"/><path class="cls-49" d="M1244.24,1498.68c2.72-5.45,5.66-10.81,8.13-16.37a116.64,116.64,0,0,0,9.88-40.62c1.62-1.48,1-3.44,1-5.19q0-659.17-.29-1318.35c-.29-145.11,0-290.22-.77-435.33-.13-23.94-8.18-45.49-22.22-64.89-2.2-3-5.68-5.16-6.69-9.07-.07-1.53,1.08-2,2.19-2.13,5.32-.45,10.7-1.49,15.81,1.13a121.31,121.31,0,0,1,26.17,63,125.81,125.81,0,0,1,.8,14.87q0,260.06,0,520.11c2.38,2.7,1.61,6,1.61,9.09q0,98-.1,195.94c0,47.48.26,95,.1,142.45-.4,120.3,0,240.6-.19,360.89,0,2.83-.07,5.67.12,8.5.23,17.65.11,35.3.09,53q-.16,230.36-.2,460.7c0,21.26-5.43,41.25-14.46,60.36a8.82,8.82,0,0,1-3.81,4.45,36.72,36.72,0,0,1-12.4.79C1246.93,1501.75,1244.53,1501.64,1244.24,1498.68Z" transform="translate(-304.32 475.2)"/><path class="cls-50" d="M1286.11,16.81c0-2.16.12-4.32.12-6.48q0-136.26,0-272.53c0-2.33.07-4.66.12-7,3.3-2.41,7-1.65,10.58-1.18,2.31.29,3.36,1.95,3.56,4.19.19,2,.14,4,.14,6q0,822.27,0,1644.54c0,2.79.56,5.69-1,8.32-4.53,2.24-9.1,2-13.7.2-1.47-2-1.33-4.42-1.33-6.73q-.06-138.69,0-277.39c0-1,.13-2,.15-3-.26-3-.14-6-.14-9q0-352,0-703.93c0-2,0-4,.15-6-.27-3.33-.14-6.66-.14-10q0-175.17,0-350.36C1284.63,23.22,1283.9,19.77,1286.11,16.81Z" transform="translate(-304.32 475.2)"/><path class="cls-51" d="M1248.41,1105.72c-.05-1.83-.15-3.66-.15-5.49q0-444.48,0-888.95c0-1.83.11-3.66.16-5.48,4.42.43,10-2,13,1.08,2.67,2.77.84,8.27.84,12.55q.06,443.15,0,886.3Z" transform="translate(-304.32 475.2)"/><path class="cls-52" d="M337.41,1440.69v-157c-1.47-1.61-1.55-3.63-1.61-5.63-.07-2.34,0-4.67,0-7q0-262.14,0-524.28c0-2,0-4,.15-6-.25-3-.14-6-.14-9q0-260,0-520c0-2,0-4,.15-6-.27-3.33-.14-6.66-.14-10q0-172.45,0-344.91c0-3.42-.82-7.05,1.61-10.13q0-79.14,0-158.3c0-1.91-.75-4,1-5.68,1.61,1.55,1.53,3.61,1.6,5.59.1,2.83,0,5.67,0,8.5V100.21c0,1.83,0,3.67,0,5.5.07,7,.07,7,7.23,7.5,1.85.13,3.67.26,5.13,1.6V807.75c-1.92,1.72-4.33,1.73-6.63,1.59-4.43-.26-6,1.9-5.74,6,.12,2,0,4,0,6q0,304.2,0,608.39c0,3.46.58,7-.94,10.36A1.26,1.26,0,0,1,337.41,1440.69Z" transform="translate(-304.32 475.2)"/><path class="cls-53" d="M338.4,1440.7q0-312.24,0-624.5c0-9.74-1.31-8.31,8.48-8.45,1.83,0,3.66,0,5.5,0q0,312.63,0,625.26c0,2.22-.9,4.68.95,6.68-1.77,5.22,1,10,1.6,15,1.42,11.61,5.75,22.4,10.4,33,.11,1.9-1.3,2.69-2.71,2.91-4.47.68-9,1.63-13.29-.91a118.33,118.33,0,0,1-11-42A11.21,11.21,0,0,1,338.4,1440.7Z" transform="translate(-304.32 475.2)"/><path class="cls-54" d="M352.41,114.81c-3.5,0-7-.1-10.49,0-2.54.09-3.72-.87-3.52-3.48.11-1.49,0-3,0-4.5v-430c0-15.91,5-30.57,11-45,4.58-1.43,9.2-.36,13.79-.12,1.09.06,2.36.5,2.21,2.12-4.49,10.71-8.74,21.49-10.51,33-.68,4.41-1.55,8.77-1.54,13.3.07,51.13.81,102.28-.12,153.4C351.53-72.66,353.05,21.08,352.41,114.81Z" transform="translate(-304.32 475.2)"/><path class="cls-55" d="M364.35,740.75c.07,1.66.21,3.32.21,5q0,266.49,0,533c0,1.66-.14,3.32-.21,5H353.41v-543A10,10,0,0,1,364.35,740.75Z" transform="translate(-304.32 475.2)"/><path class="cls-56" d="M364.35,740.75H353.41q0-264.21,0-528.42c0-9.82-1.33-8.38,8.42-8.53.83,0,1.66,0,2.5,0,.07,1.66.21,3.32.21,5q0,263.51,0,527C364.55,737.44,364.42,739.09,364.35,740.75Z" transform="translate(-304.32 475.2)"/><path class="cls-45" d="M1286.11,16.81c0,1.33.12,2.66.12,4q0,180.75,0,361.49c0,1.49-.07,3-.11,4.49-4.7,1.75-5.56,5.38-5.32,9.93.28,5.48.12,11,0,16.49-.06,4.68.07,9.28,2.05,13.69,1.1,2.46,1,5.22,1,7.89q0,58.22,0,116.42a20.58,20.58,0,0,1-1.91,9.7c-1.58,3.1-1.08,6.52-1.08,9.83q0,125.67,0,251.33c0,31,0,62-.08,92.94,0,2.68,1.34,6.18-2.54,7.74q0-358.47,0-716.94c1.8-1.82,1-4.11,1-6.18q.08-87.87,0-175.74C1279.24,16.84,1279.24,16.84,1286.11,16.81Z" transform="translate(-304.32 475.2)"/><path class="cls-57" d="M337.41-159.17v365c-2.61,1.85-5.22,1.95-7.83,0-.06-1.5-.16-3-.16-4.49q0-178,0-356c0-1.5.1-3,.16-4.49Z" transform="translate(-304.32 475.2)"/><path class="cls-58" d="M1299.21,1392.64q0-624.65,0-1249.27,0-202.21,0-404.42c0-9.2,1.14-8-7.84-8.1l-5,0v-30.93c1.75-1.74,4-1.27,6.13-1.4,1.76-.11,3.78.48,4.78-1.73.91-6.24.17-12.5.43-18.73.1-2.43-.34-5,1.37-7.11,3,.18,2.17,2.61,2.55,4.33q.07,150,0,300c0,1,0,2,0,3q.09,48.26,0,96.52c-.09,16,0,32.11,0,48.17q-.06,651.81,0,1303.63c0,3.47.51,7-.6,10.41a1.67,1.67,0,0,1-1.42,1c-2.52-2-1.79-4.81-1.83-7.35,0-3.17-1.43-4.43-4.54-4.45-2.58,0-5.37.51-7.54-1.63-2.16-7.15-.67-14.48-1-21.72-.14-2.94-.5-6,1-8.78,2.59-1.63,5.47-.45,8.19-.82C1295.66,1393,1297.54,1393.75,1299.21,1392.64Z" transform="translate(-304.32 475.2)"/><path class="cls-59" d="M806.38-320.79q-35.24,0-70.46,0c-7,0-9.73-2.24-9.73-7.76s3.11-8.09,9.68-8.09q70.46-.06,140.91,0a17.63,17.63,0,0,1,3.48.26c4.38.85,6.54,4,6.19,8.77-.32,4.4-2.87,6.68-7.12,6.78-6.82.17-13.65.06-20.48.06Z" transform="translate(-304.32 475.2)"/><path class="cls-26" d="M847.32-443.16h-128c-2.55-6-2.17-12.07-.29-18.16,5.67-2.47,11.65-.66,17.46-1.24,34.35,0,68.7,0,103,0,2.61,0,5.33-.5,7.78,1A23.56,23.56,0,0,1,847.32-443.16Z" transform="translate(-304.32 475.2)"/><path class="cls-27" d="M1022.29-443.17h-113a24.56,24.56,0,0,1-.13-18.31c1.91-1.35,4.13-1.06,6.26-1.07q50.28,0,100.56,0c2.13,0,4.34-.28,6.29,1A23.43,23.43,0,0,1,1022.29-443.17Z" transform="translate(-304.32 475.2)"/><path class="cls-50" d="M1299.34-329.32l-.18,28.17a35.3,35.3,0,0,1-12.8,0q-.13-7.53-.26-15.06c-1-2.27.36-4.8-.82-7a133.9,133.9,0,0,0-16.69-53c-.89-1.59-2.12-3-2.35-4.88-.88-8.48-1.3-16.94.74-25.32,2.51-2.31,3.88-.08,5.14,1.51A123.72,123.72,0,0,1,1284-386.79a106,106,0,0,1,5,9.52c1.35,3.37,2.2,7,4.67,9.82a9.13,9.13,0,0,1,1.22,3.94c-.12,2.3.9,4.37,1.45,6.53.31,1.6.85,3.14,1.13,4.75a46.27,46.27,0,0,0,1.72,7.52,6.46,6.46,0,0,1,.8,3.47,8.93,8.93,0,0,0,.35,5C1300.49-333.86,1301.14-331.42,1299.34-329.32Z" transform="translate(-304.32 475.2)"/><path class="cls-60" d="M1171.26-442.17c-28.3-2-56.66-.38-85-1-2.54-6.05-2.26-12.13-.21-18.24,2.23-1.58,4.8-1.11,7.25-1.12q30.92-.06,61.83,0a67.33,67.33,0,0,0,9.73-.3c2.27.49,4.79,0,6.77,1.66a4.79,4.79,0,0,1,.77,1.67C1172.48-453.71,1174.16-447.78,1171.26-442.17Z" transform="translate(-304.32 475.2)"/><path class="cls-32" d="M1086.27-461.06q0,8.94,0,17.89h-64v-17.9c1.7-1.84,4-1.45,6.08-1.46q25.92-.06,51.83,0C1082.3-462.52,1084.57-462.91,1086.27-461.06Z" transform="translate(-304.32 475.2)"/><path class="cls-61" d="M1268.31-407.32c-1.8,3.23-1,6.74-1,10.12-.14,5.37.32,10.78-1,16.07-5.56-6.3-10.35-13.21-15.77-19.63-7.84-9.28-17.22-16.41-27.26-22.9-.68-.45-1.31-1-2-1.47a2.65,2.65,0,0,1-1.47-2.44c.27-5.64-.64-11.32.69-16.91,2.29-2.68,4.35-.47,6.47.31a46.47,46.47,0,0,0,5.48,3.36c2.93,2,5.9,4.05,8.93,6a41.64,41.64,0,0,0,4.18,3.16c2,1.45,3.42,3.45,5.53,4.71a206.28,206.28,0,0,1,16.58,16.35C1268.23-409.59,1268.78-408.56,1268.31-407.32Z" transform="translate(-304.32 475.2)"/><path class="cls-62" d="M909.3-461.07q0,9,0,17.91h-62v-17.91c1.7-1.84,4-1.45,6.08-1.46q24.92-.06,49.83,0C905.33-462.52,907.6-462.91,909.3-461.07Z" transform="translate(-304.32 475.2)"/><path class="cls-63" d="M1221.24-444.93q0,9.9,0,19.8c-11.8-6.13-23.88-11.52-36.93-14.48-4.33-1-8.87-.84-13.06-2.56q.06-9.1.1-18.21c3.08-2.22,6.39-.06,9.56-.54a5.77,5.77,0,0,1,2.19.14,19.81,19.81,0,0,0,5.25,1.87c1.79.55,3.63.93,5.44,1.4,1.67.26,3.24,1,5,1a19.39,19.39,0,0,1,8.57,2.67c2.87,2.34,6.47,3.33,9.61,5.17C1218.59-447.69,1220.76-447.29,1221.24-444.93Z" transform="translate(-304.32 475.2)"/><path class="cls-49" d="M365.41-366.15c-2.34-2-5.11-.84-7.67-.93a30.38,30.38,0,0,1-8.33-1.07,113.29,113.29,0,0,1,40.52-46.77c2.61-1.73,5-2.56,8.32-1.58,4.34,1.28,9.11-.3,14.36,1-6.27,4.89-12.47,8.56-18,13.28a125.45,125.45,0,0,0-27.53,33.65A28.07,28.07,0,0,1,365.41-366.15Z" transform="translate(-304.32 475.2)"/><path class="cls-3" d="M1251.25-392.14c-6,.57-12.11-1.23-18,1-10.42-10.05-21.62-19.09-34.45-25.87-5.84-3.09-12-5.47-18.11-8.13-1.06-.46-2.23-.68-2.88-1.79.39-1.71,1.79-1.09,2.82-1.2,23.44-2.53,41.62,8.34,58.15,23.11C1243.22-401,1247.11-396.45,1251.25-392.14Z" transform="translate(-304.32 475.2)"/><path class="cls-64" d="M352.35-386.33c-1.94-5-.64-10.19-.9-15.28-.22-4.48-.05-9-.05-13.47,3-4.54,8-7.3,10.71-12.05a4.62,4.62,0,0,1,1.08-.84c1.78-.71,3-2.28,4.71-3.11,1.38-.54,2.67-.7,3.46.95,1.86,7.35,2.74,14.7.07,22.05C364.59-401.25,358.5-393.76,352.35-386.33Z" transform="translate(-304.32 475.2)"/><path class="cls-65" d="M618.35-443.18h-28c-2.53-6-2.23-12.12-.22-18.21,1.88-1.42,4.1-1.24,6.21-1.12,7.37.45,14.84-1.22,22.12,1A24.3,24.3,0,0,1,618.35-443.18Z" transform="translate(-304.32 475.2)"/><path class="cls-66" d="M819.31-395.37a12.58,12.58,0,0,1-12.63,12.7,12.49,12.49,0,0,1-12.8-12.49A12.73,12.73,0,0,1,806.48-408,12.82,12.82,0,0,1,819.31-395.37Z" transform="translate(-304.32 475.2)"/><path class="cls-67" d="M618.37-461.09h-28c-2.24,1.87-5,1.51-7.56,1.51-5.1,0-10.2.17-15.29-.09-5.71.15-11.41.17-17.12,0q-9.48.24-19,0c-5.94.15-11.88.18-17.81,0-4.43.16-8.87.08-13.31.05-3.12,0-4.31,1.34-4.47,4.44-.2,4,1.16,8.26-1.48,12h-17c-2.68-5.91-2-11.9-.42-17.91,2.24-2,5-1.3,7.58-1.39a22.7,22.7,0,0,0,6.36-.8,45.25,45.25,0,0,1,6.48-.25q67.08,0,134.16,0c2.46,0,5-.42,7.35.82a1.36,1.36,0,0,1,.53,1.72A32.11,32.11,0,0,1,618.37-461.09Z" transform="translate(-304.32 475.2)"/><path class="cls-68" d="M719.35-461.08q0,9,0,17.92h-24c-2.57-6-2.11-12-.35-18.07,5.52-2.59,11.39-.74,17.07-1.31C714.54-462.3,717.25-463.19,719.35-461.08Z" transform="translate(-304.32 475.2)"/><path class="cls-69" d="M567.38-461.09h23q0,9,0,17.91l-23,0A22.73,22.73,0,0,1,567.38-461.09Z" transform="translate(-304.32 475.2)"/><path class="cls-70" d="M618.37-461.09l21-.1a1.2,1.2,0,0,1,1.6.53c1.25,5.87,2,11.74-.6,17.48h-22Q618.37-452.13,618.37-461.09Z" transform="translate(-304.32 475.2)"/><path class="cls-71" d="M371.43-408.08c-.05-7.7.26-15.41-1-23.06-.53-1.5.82-1.95,1.52-2.77a66,66,0,0,1,5.68-4.15c2.06-1.08,3.92-2.5,6-3.46,1.54-.71,3.33-2.06,4.67.41.58,6.6,1.45,13.19.09,19.79Z" transform="translate(-304.32 475.2)"/><path class="cls-72" d="M422.43-437.34l-18,7c-2.22-2.55-1.33-5.65-1.41-8.54-.1-3.45-.21-6.91-.15-10.37a2.72,2.72,0,0,1,.73-1.52c6.08-3.2,12.25-6.1,19.37-6a2.67,2.67,0,0,1,1.23,1.23c1.33,4.68.65,9.45.58,14.18A4.16,4.16,0,0,1,422.43-437.34Z" transform="translate(-304.32 475.2)"/><path class="cls-73" d="M422.43-437.34c2.09-6.2.46-12.59.94-18.88.32-2.52,2.7-2,4.17-2.83,2.12-.4,4.18-1.13,6.33-1.41,3.07.12,6.35-2.39,9.18.73,1.17,6,2,11.9-.65,17.7Z" transform="translate(-304.32 475.2)"/><path class="cls-60" d="M695.36-461.08l0,17.91h-20c-2.58-5.95-2.08-12-.39-18,4.49-2.61,9.4-.82,14.09-1.37C691.22-462.36,693.58-463,695.36-461.08Z" transform="translate(-304.32 475.2)"/><path class="cls-74" d="M403.41-449.95c2.12,6.44.47,13.07,1,19.59l-16,9c-1.66-6.85-.78-13.82-1-20.75a2.88,2.88,0,0,1,1-2.57c3.17-1.55,6.37-3,9.67-4.3C399.86-449.36,401.36-451.16,403.41-449.95Z" transform="translate(-304.32 475.2)"/><path class="cls-75" d="M477.38-461.17v18h-19c-2.55-6-2.2-12.08-.25-18.16C464.57-463.16,471-463.45,477.38-461.17Z" transform="translate(-304.32 475.2)"/><path class="cls-76" d="M531.39-461.09h19a22.91,22.91,0,0,1,0,17.89h-19A22.73,22.73,0,0,1,531.39-461.09Z" transform="translate(-304.32 475.2)"/><path class="cls-77" d="M494.38-443.2c0-4.67.15-9.34-.05-14-.13-3.11,1.08-4.1,4.08-4,5,.19,10,.07,15,.08a22.93,22.93,0,0,1,0,17.9Z" transform="translate(-304.32 475.2)"/><path class="cls-78" d="M513.38-443.2q0-9,0-17.9h18q0,8.94,0,17.89Z" transform="translate(-304.32 475.2)"/><path class="cls-79" d="M640.35-443.18q0-9,0-17.91c6-2.56,12.09-1.86,18.18-.33,2.08,6.1,2.36,12.19-.19,18.24Z" transform="translate(-304.32 475.2)"/><path class="cls-80" d="M550.37-443.2q0-8.94,0-17.89h17q0,9,0,17.9Z" transform="translate(-304.32 475.2)"/><path class="cls-81" d="M658.35-443.18q0-9,0-17.91c1.14-1.37,2.75-1.33,4.31-1.42,4.23.5,8.71-1.3,12.69,1.43q0,9,0,17.91Z" transform="translate(-304.32 475.2)"/><path class="cls-82" d="M458.4-461.07q0,8.93,0,17.87l-16,1.17v-18a4.08,4.08,0,0,1,2.6-2.06c2.81-.65,5.67-.32,8.51-.42C455.25-462.41,457.09-462.63,458.4-461.07Z" transform="translate(-304.32 475.2)"/><path class="cls-83" d="M632.54-326.19c-.47-9.48,3.59-15.21,12.73-18,1.15-.74,2.43-.36,3.66-.39a1.43,1.43,0,0,1,.11,2.48c-5.51,4.55-8.76,11.23-14.67,15.37A2.31,2.31,0,0,1,632.54-326.19Z" transform="translate(-304.32 475.2)"/><path class="cls-84" d="M632.54-326.19,649.3-344c1.33-1,2.72-.75,4.12-.17h0c.66,1.3-.22,2.2-1,3-1.28,1.31-2.54,2.52-1.31,4.53-1.8,1.18-4.13.51-5.93,1.69-4,2.14-4.17,6.26-5.24,9.93-1.74,1.84-2.47,4.84-5.69,5C632.82-321.88,632.6-324,632.54-326.19Z" transform="translate(-304.32 475.2)"/><path class="cls-85" d="M665.49-333.43c1.55,2.28,1,4.81.8,7.29-4.14,5.48-8,11.18-13.94,15-1.67.34-3.34,1-5,.05-.4-3,2.22-4.37,3.44-6.5,3-2.17,6.58-3.85,8.06-7.68a6.57,6.57,0,0,1,.94-1C662.3-328.12,663.25-331.29,665.49-333.43Z" transform="translate(-304.32 475.2)"/><path class="cls-25" d="M652.35-311.12c4.59-5.05,8.38-10.86,13.94-15C665.81-318.07,660.49-312.34,652.35-311.12Z" transform="translate(-304.32 475.2)"/><path class="cls-86" d="M657.31-342.94a7.1,7.1,0,0,1,4,2.93c.33,2.69-2.38,4.28-2.5,6.82a2.56,2.56,0,0,1-1.5,1.33c-1.64-.09-2.09-1.54-2.92-2.55a7.11,7.11,0,0,1-1.74-2.91C652.78-340.36,654.59-342,657.31-342.94Z" transform="translate(-304.32 475.2)"/><path class="cls-87" d="M658.37-333.17c-1.61-3.38,1.91-4.58,2.91-6.84,2,.69,2.05,2.75,3,4.16.29,4.17-3.36,6.87-4,10.7-.3,0-.59,0-.88.06C657.2-327.53,658-330.39,658.37-333.17Z" transform="translate(-304.32 475.2)"/><path class="cls-88" d="M634.25-320.09c1.79-1.59,2.76-4,5.1-5.05,1.91.68,2.61,2.39,3.42,4a2.83,2.83,0,0,1-.16,1.38c-1.48,1.71-2.46,4.17-5.44,3.68A7.2,7.2,0,0,1,634.25-320.09Z" transform="translate(-304.32 475.2)"/><path class="cls-89" d="M651.36-317.14l-4,6.07a7.91,7.91,0,0,1-6.15-2,11.26,11.26,0,0,1,4.54-5.51C647.72-318.59,649.76-318.74,651.36-317.14Z" transform="translate(-304.32 475.2)"/><path class="cls-90" d="M645.4-318.06c-.4,2.53-2.3,3.79-4.23,5a6.39,6.39,0,0,1-4-3l5.14-4.07C644.26-320.81,644.92-319.57,645.4-318.06Z" transform="translate(-304.32 475.2)"/><path class="cls-91" d="M657.31-342.94c-1,2.11-3.89,3-3.95,5.79a1.3,1.3,0,0,1-2-.1c-1.94-.89-3.19-1.82-.76-3.73a21.53,21.53,0,0,0,2.77-3.22C654.92-344.47,656.12-343.73,657.31-342.94Z" transform="translate(-304.32 475.2)"/><path class="cls-92" d="M660.35-325.15c-1.33-4.55,2.38-7.23,4-10.7,1.1.46,1.13,1.44,1.18,2.42C665.29-329.73,662.75-327.49,660.35-325.15Z" transform="translate(-304.32 475.2)"/><path class="cls-50" d="M1286.36-301.15h12.8c-4.12,2.21-8.56.38-12.79,1C1286.36-300.46,1286.36-300.81,1286.36-301.15Z" transform="translate(-304.32 475.2)"/><path class="cls-91" d="M653.42-344.19l-4.12.17-4-.17A9.23,9.23,0,0,1,653.42-344.19Z" transform="translate(-304.32 475.2)"/><path class="cls-45" d="M1285.28-323.25c1.57,2.2.71,4.67.82,7C1284.43-318.39,1285.55-320.9,1285.28-323.25Z" transform="translate(-304.32 475.2)"/><path class="cls-57" d="M329.63-317.21c0-2.37-.43-4.79.75-7C330.12-321.9,331.16-319.42,329.63-317.21Z" transform="translate(-304.32 475.2)"/><path class="cls-55" d="M337.41,740.75v543h-7.83c-.06-1.83-.16-3.66-.16-5.48q0-266,0-532c0-1.82.11-3.65.17-5.48C332.19,738.8,334.8,738.91,337.41,740.75Z" transform="translate(-304.32 475.2)"/><path class="cls-56" d="M337.41,740.75h-7.83c-.06-1.66-.16-3.32-.16-5q0-262.48,0-525c0-1.66.11-3.32.17-5h7.83Z" transform="translate(-304.32 475.2)"/><path class="cls-93" d="M397.4,1558.68c0-.34,0-.68,0-1,6.11,1.09,11.41,4.37,17.22,6.32a149.51,149.51,0,0,0,47.88,7.68q343.83,0,687.64.08c34.12,0,64.76-9.67,91.72-30.5,12.86-9.94,23.19-22.25,31.64-36.14.77-1.26,1.16-2.8,2.71-3.45l.46.63c-.17,5.77-4.16,9.8-7.19,13.93-19.25,26.28-44.65,43.93-76.08,52.71-11.09,3.09-22.32,5.42-34,5.15q-351.42,0-702.8,0c-18.32.36-35.69-4-52.57-10.72C401.56,1562.39,398.62,1561.66,397.4,1558.68Z" transform="translate(-304.32 475.2)"/><path class="cls-93" d="M1288.25,1438.71l-2,0a1.06,1.06,0,0,1,.36-1.5c2.94-1.21,5.69-1.23,8.06,1.26a7.18,7.18,0,0,1,.54,5c-.83,2.34-.62,4.79-.65,7.21a137.46,137.46,0,0,1-13.94,47c-.93,1.83-1.54,4.2-4.38,4l0,0c4.38-10.48,9.5-20.68,12.12-31.83,2.11-9,4-18,4-27.28C1292.32,1439.44,1291.19,1438.31,1288.25,1438.71Z" transform="translate(-304.32 475.2)"/><path class="cls-94" d="M411.4,1537.68c5.17,1,9.15,4.56,13.85,6.64,19.92,8.81,40.59,12.49,62.35,12.47q321.4-.27,642.81,0a147.4,147.4,0,0,0,58.5-11.85c8.34-3.53,15.77-8.47,23.35-13.24a113.09,113.09,0,0,1,22.68,0c3,1.47,1,2.78-.21,4-3.14,3.12-7.17,5.13-10.47,8.06-14.8,10.07-31.21,16-48.78,19-11.17,1.86-22.44,2-33.74,2q-339.78-.08-679.55-.1a128.23,128.23,0,0,1-55-11.95,20.55,20.55,0,0,0-2.82-.89l-11-6c-.47-4.19-5.54-3.8-7-7a5.19,5.19,0,0,1,4.11-1.45C397.47,1537.23,404.46,1536.66,411.4,1537.68Z" transform="translate(-304.32 475.2)"/><path class="cls-95" d="M1224.26,1543.71c1.85-3.52,5.66-4.68,8.44-7.08a37.14,37.14,0,0,0,3.55-4c1.84-4.47,6.12-6.86,9-10.49,4.74-6,9.59-11.89,13.36-18.57a8.76,8.76,0,0,1,2.64-2.94c7.7-13.15,12.28-27.41,15-42.32,1.24-6.83,2.31-13.69,2-20.67,1-1.9.48-3.93.48-5.89q0-160.62,0-321.25c0-6.42,1.55-7.42,7.37-4.84,0,4.66.11,9.32.11,14q0,133,0,266.06c0,2.33.08,4.66.13,7,.27.2.36.42.28.63s-.17.33-.26.33l0,31a14.12,14.12,0,0,1,0,13c0,.33,0,.66-.07,1-1.92,28-11,53.31-28.35,75.46C1248.58,1526.07,1237.59,1536.26,1224.26,1543.71Z" transform="translate(-304.32 475.2)"/><path class="cls-94" d="M362.88-427.19l-.34,0-.21.28a.51.51,0,0,1-.82.08c4-6.14,10.31-9.77,16.14-13.71a157.69,157.69,0,0,1,46.51-21.93c14.65-4.05,29.48-7.07,44.8-6.63.83,0,1.67,0,2.5,0q343.32,0,686.63-.06c26.5,0,51.51,5.61,74.86,18,23.1,12.26,42.25,28.95,56.53,51.18,4.58,7.14,8.06,14.85,12.75,21.88a159.17,159.17,0,0,1,10.69,43.26,151.91,151.91,0,0,1,.76,16.93q.06,875.27,0,1750.52c0,16.52-2,32.76-7.88,48.35a1.77,1.77,0,0,1-1.45.95c-2.32-2.36-1.09-5-.4-7.46a157.28,157.28,0,0,0,5.45-31.12c.1-1.35-.2-2.63-.13-4a6.74,6.74,0,0,1,.29-1.85,49.48,49.48,0,0,0,.23-7.5q0-872.46,0-1744.93c0-2.49.09-5-.15-7.46-1.57-6.33-.42-12.86-1.51-19.31-3-17.69-8.54-34.27-17.75-49.8-7.1-12-15.08-23.08-25.34-32.4-8.09-7.34-16.07-14.95-26.41-19.23a45.49,45.49,0,0,1-4.54-2.37,15.94,15.94,0,0,1-2.13-2c-7.32-4.16-14.46-8.74-23.2-9.41a44,44,0,0,1-9.85-2.83c-4.78-3.61-10.69-2.77-16.07-4-1.59-.37-3.31-.11-4.93-.55-4.07-1.11-8.33.13-12.4-1.06a31.18,31.18,0,0,0-7.47-.38q-343.33,0-686.68,0a36.81,36.81,0,0,0-7,.29c-6.5,1-13.14.55-19.61,1.84a8.88,8.88,0,0,1-1.53.42c-3.24.33-6.5.58-9.5,2.05a10.51,10.51,0,0,1-4.35,1.22c-7.07.29-13.09,3.87-19.51,6.19-2,.73-3.9,1.81-5.94,2.52a54.77,54.77,0,0,0-6.36,2.72c-3.3,1.54-6.81,2.64-9.91,4.64-3.4,2.67-7.34,4.49-11,6.81-1.5,1.32-3.34,2.15-4.84,3.47-1.86,1.12-3.4,2.69-5.33,3.71C365.46-428.78,364.5-427.53,362.88-427.19Z" transform="translate(-304.32 475.2)"/><path class="cls-46" d="M1304.24,1481.69c5.2-9.48,6.71-20,7.82-30.46,1.93-18,1.17-36.21,1.17-54.33q0-856.22-.13-1712.43c0-12.69-.18-25.62-4-37.91-2.17-6.91-2.89-14.25-6.28-20.81-.56-1.1-.38-2.59-.55-3.89,3.2,2.14,1.74,6.89,5,9v1a16.17,16.17,0,0,1,1,5c3,11.19,5.9,22.52,5.9,34.11q.16,886.34-.1,1772.69c0,15.84-4,31.45-10.81,46C1301.29,1486.73,1302.5,1484.18,1304.24,1481.69Z" transform="translate(-304.32 475.2)"/><path class="cls-96" d="M325.39-378.16l-1.08-1.17a95.14,95.14,0,0,1,11.22-18.78c.85-.17,1.38,0,.9,1A138.41,138.41,0,0,0,325.39-378.16Z" transform="translate(-304.32 475.2)"/><path class="cls-97" d="M361.51-426.87a4.56,4.56,0,0,1,.82-.08c-2.26,5.22-7.17,8-10.93,11.87-.11-.48-.21-1-.32-1.45Z" transform="translate(-304.32 475.2)"/><path class="cls-98" d="M336.43-397.12l-.9-1a49,49,0,0,1,7.85-10.11c.33.25.44.5.35.76s-.2.39-.31.39C341.82-403.24,338.74-400.45,336.43-397.12Z" transform="translate(-304.32 475.2)"/><path class="cls-99" d="M343.42-407.07l0-1.15a22.61,22.61,0,0,1,5-5.48C348.34-410.28,345.59-408.89,343.42-407.07Z" transform="translate(-304.32 475.2)"/><path class="cls-57" d="M411.4,1537.68c-5.77,2.06-11.73.58-17.59,1-2.46.17-4.94,0-7.41,0A108.65,108.65,0,0,1,363.28,1515a9.16,9.16,0,0,1-.88-2.26c1.89-1.86,4.33-1.49,6.59-1.42,3.83.11,7.6-.52,11.41-.58a136.51,136.51,0,0,0,21.53,20C405.06,1533.06,408.24,1535.36,411.4,1537.68Z" transform="translate(-304.32 475.2)"/><path class="cls-3" d="M380.4,1510.69c-2.73,3.06-6.37,1.78-9.68,2-2.76.16-5.55,0-8.32,0-6-6.74-9.68-14.76-13-23h11.24a5.76,5.76,0,0,0,4.76-2C370.11,1495.55,374.76,1503.44,380.4,1510.69Z" transform="translate(-304.32 475.2)"/><path class="cls-55" d="M338.4,1440.7v7c-1.9-2.11-.61-4.67-1-7Z" transform="translate(-304.32 475.2)"/><path class="cls-100" d="M1276.26,1501.7c4.43-4.12,5.73-10,7.94-15.19a128.11,128.11,0,0,0,9-35.82c1.33-2.19-.3-4.8,1-7v-5a1.72,1.72,0,0,1,2.44.22c2.42,6.12.42,12.26-.49,18.19-5,32.41-19.75,59.88-43.94,81.94a141.45,141.45,0,0,1-76.5,36.07,230.62,230.62,0,0,1-33.34,2.07q-138.4-.09-276.81,0c-3,0-6,0-9-.11-2.18.11-4.2-.92-6.38-.91-28.88,0-57.75-.16-86.63.08-7.4,3.17-15.21,2.92-23,2.91q-104.94-.07-209.86,0c-2.83,0-5.66.06-8.48-.07s-5.14-2.06-8-1.71a4.52,4.52,0,0,1-1.56-.42c-4.16-1.71-8.51-.51-12.77-.82-13.64-.76-27.29-.33-40.93-.38a146,146,0,0,1-56.62-12c-5.37-2.54-10.73-5.12-15.92-8l-3.95-2.07c-.35-1-.7-2-1-2.94l16,8c18.3,8.94,37.51,14.08,58,14,1.72,1,3.59.48,5.39.48q347.55,0,695.1,0c1.79,0,3.66.47,5.39-.48,22.3-.68,43-6.89,62.51-17.65a136.09,136.09,0,0,0,34.37-26.86C1265.46,1520.28,1272.29,1511.94,1276.26,1501.7Z" transform="translate(-304.32 475.2)"/><path class="cls-101" d="M401.4,1562.68a165.47,165.47,0,0,0,37.06,10.49c4.56.7,9.08,1.57,13.75,1.55,16.09-.07,32.18,0,48.27.06a1.07,1.07,0,0,1-.33,1.36c-1.87.81-3.72,1.89-5.79.53-13.6,0-27.24.61-40.8-.14-19.19-1.06-37.86-4.9-55.16-13.85A2.35,2.35,0,0,1,401.4,1562.68Z" transform="translate(-304.32 475.2)"/><path class="cls-102" d="M393.51,1564.34l-10.06-5.86c-.09-.83,0-1.43,1.05-.87,12.69,6.87,25.79,12.72,39.88,16.1.51,1.88-1.28,1.18-1.95,1.74C412.65,1572.13,403,1568.53,393.51,1564.34Z" transform="translate(-304.32 475.2)"/><path class="cls-103" d="M422.43,1575.45l1.95-1.74c8.67,2.09,17.37,4,26.36,4a3.58,3.58,0,0,1,2.75.86,5.32,5.32,0,0,1-3.65,2,147.49,147.49,0,0,1-22.46-4C425.47,1577.33,424.19,1575.4,422.43,1575.45Z" transform="translate(-304.32 475.2)"/><path class="cls-104" d="M450.42,1579.54c.79-1.08,2-.73,3.07-1,11.54,0,23.08,0,34.62.1a25.85,25.85,0,0,0,6.27-1,1.59,1.59,0,0,1-.23,1.8,5.1,5.1,0,0,1-4,1.64c-12.36-.08-24.73.64-37.08-.44A3.33,3.33,0,0,1,450.42,1579.54Z" transform="translate(-304.32 475.2)"/><path class="cls-34" d="M401.4,1562.68h-3c-4.36-1.71-9-2.88-12-7C392,1556.66,396.69,1559.73,401.4,1562.68Z" transform="translate(-304.32 475.2)"/><path class="cls-40" d="M384.5,1557.61l-1.05.87a91.07,91.07,0,0,1-16-10.87c-.3-.26-.39-.52-.28-.76s.22-.37.32-.37Z" transform="translate(-304.32 475.2)"/><path class="cls-105" d="M367.47,1546.48l0,1.13a24.16,24.16,0,0,1-6.07-4.91l1.26-.09C364.92,1543,366.16,1544.81,367.47,1546.48Z" transform="translate(-304.32 475.2)"/><path class="cls-98" d="M494.34,1578.51a3.63,3.63,0,0,1,0-.87,3.16,3.16,0,0,1,0-1l5.87-1.15c1.1-.3,1.36.29,1.31,1.22C499.39,1578.35,497.15,1579.6,494.34,1578.51Z" transform="translate(-304.32 475.2)"/><path class="cls-94" d="M1304.24,1481.69c-.34,2.66-.67,5.33-1,8a2.06,2.06,0,0,0-1,2,145.58,145.58,0,0,1-15,27l-2,3c-1.13,1.83-2.91,3.14-4,5l-1,1c-1.42,2.21-3.78,3.63-5,6a34.91,34.91,0,0,1-7,7c-.79,1.88-3,2.31-4,4-4.7,3.62-8.72,8.11-14,11l-1,1a162.63,162.63,0,0,1-20,12h0c-1.88,1.23-4.31,1.38-6,3h0c-3.68,1.29-7.41,2.45-11,4a151.67,151.67,0,0,1-49.26,8.48q-140.68,0-281.37-.05c-4.44,0-9,.11-13.3-1.43h-1c-1.74-1.51-4.33-.29-6-1.89,4.67-2.87,9.73-1.13,14.64-1.24a20.37,20.37,0,0,0,6.91.74c94.6,0,189.2.12,283.81-.12,15.16,0,30-3.44,44.35-8.46a143.45,143.45,0,0,0,59.76-39.14c7.45-8.18,15.2-16.36,19.29-27a9.68,9.68,0,0,1,1.52-2.94c3.73-4.23,5.5-9.51,7.87-14.49,1.14-2.39.76-6.13,4.79-6.42Z" transform="translate(-304.32 475.2)"/><path class="cls-46" d="M868.32,1582.68c96.41,2.27,192.85.39,289.27,1,17.12.11,33.93-2,50.28-7.29a26.49,26.49,0,0,1,4.38-.7c-1.29,3-4.38,1.9-6.58,2.64-13.78,4.61-28,6.39-42.54,6.39q-146.4-.09-292.82,0Z" transform="translate(-304.32 475.2)"/><path class="cls-46" d="M1287.24,1518.68l15-27c.17,4.87-3.21,8.43-5,12.47A46.16,46.16,0,0,1,1287.24,1518.68Z" transform="translate(-304.32 475.2)"/><path class="cls-46" d="M1229.25,1568.68a119.89,119.89,0,0,1,20-12A45.43,45.43,0,0,1,1229.25,1568.68Z" transform="translate(-304.32 475.2)"/><path class="cls-46" d="M1250.25,1555.68c4.48-3.9,8.67-8.17,14-11C1260.3,1549.27,1256.28,1553.75,1250.25,1555.68Z" transform="translate(-304.32 475.2)"/><path class="cls-46" d="M1212.25,1575.68c3.32-2.28,6.87-3.93,11-4C1220,1574.22,1216.15,1575,1212.25,1575.68Z" transform="translate(-304.32 475.2)"/><path class="cls-46" d="M1268.24,1540.68c2.18-2.49,3.88-5.45,7-7A10.53,10.53,0,0,1,1268.24,1540.68Z" transform="translate(-304.32 475.2)"/><path class="cls-46" d="M1275.24,1533.68c.17-3.24,2.74-4.49,5-6C1279.77,1530.68,1277.37,1532.07,1275.24,1533.68Z" transform="translate(-304.32 475.2)"/><path class="cls-46" d="M1223.25,1571.68c1.34-2.32,3.51-3,6-3C1228,1571.12,1225.4,1571,1223.25,1571.68Z" transform="translate(-304.32 475.2)"/><path class="cls-46" d="M1281.24,1526.68c.24-2.53,2.14-3.75,4-5C1285,1524.22,1283.1,1525.44,1281.24,1526.68Z" transform="translate(-304.32 475.2)"/><path class="cls-46" d="M1264.24,1544.68c.31-2.35,2.56-2.78,4-4C1268.22,1543.32,1266,1543.72,1264.24,1544.68Z" transform="translate(-304.32 475.2)"/><path class="cls-9" d="M1308.24-363.15a8.21,8.21,0,0,1-1-5C1308.09-366.58,1309.84-365.2,1308.24-363.15Z" transform="translate(-304.32 475.2)"/><path class="cls-45" d="M538.37,1584.68c1.48-1.64,3.43-1,5.18-1q101.81-.06,203.61,0c1.75,0,3.7-.67,5.18,1Z" transform="translate(-304.32 475.2)"/><path class="cls-45" d="M503.38,1583.68c2-3.41,5.3-1.49,8-2l-1,1C508.2,1584.07,505.75,1583.61,503.38,1583.68Z" transform="translate(-304.32 475.2)"/><path class="cls-45" d="M495.38,1584.68c1.82.4,3-2.2,5-1l-2,2C497.28,1585.64,496.1,1585.85,495.38,1584.68Z" transform="translate(-304.32 475.2)"/><path class="cls-45" d="M524.38,1582.68c1.68.24,3.6-.67,5,1-1.34,1.8-2.67-.36-4,0h-1Z" transform="translate(-304.32 475.2)"/><path class="cls-28" d="M857.44,1579.63c-5.73-1.29-11.55-.94-17.35-1-18,0-36,.37-53.94-.14-11.09-.31-21.61,3-32.52,3.64-2,.11-3.93.49-5.92.49q-103.89,0-207.78,0a50.21,50.21,0,0,1-13.61-1.87c2.35-2.33,5.35-1.48,8.07-1.49q89.94-.08,179.87,0c11.16,0,22.32-.12,33.48.06a58.67,58.67,0,0,0,15.35-1.37c9-2.27,18.1-2.31,27.25-2.29,19.49.06,39,0,58.45,0a13,13,0,0,1,8.33,2.36A1.44,1.44,0,0,1,857.44,1579.63Z" transform="translate(-304.32 475.2)"/><path class="cls-106" d="M850.59,1576.55c-19.82,0-39.65.48-59.46,0-11.1-.28-21.76,1.77-32.51,3.64a40.64,40.64,0,0,1-6.93.51q-109.44,0-218.87,0c-2.17,0-4.33.06-6.5.1-2-.37-4.27.54-6.15-.91l.7-.7c2.43-.87,5-.48,7.43-.48q112.66,0,225.32,0c3.88-.52,7-3.35,11.06-3.48,28.29,0,56.57-.06,84.85,0A1.12,1.12,0,0,1,850.59,1576.55Z" transform="translate(-304.32 475.2)"/><path class="cls-107" d="M876.32,1580.76l-15,0c-1-.14-2.19.09-3-.89,1.93-2.28,4.6-1.59,7-1.6,18-.07,35.94,0,53.91,0q123.31,0,246.62,0c2,.14,4.11-.24,5.59,1.61-1.29,2.43-3.57,1.22-5.33,1.22q-93.7.12-187.4.06-48.48,0-97,0C879.94,1581.14,878.08,1581.52,876.32,1580.76Z" transform="translate(-304.32 475.2)"/><path class="cls-104" d="M1166.21,1579.5c-3,.11-6,.33-9,.33q-148,0-295.92,0c-1,0-2,0-3,.08a1.65,1.65,0,0,0-.86-.27,1.47,1.47,0,0,1,0-1,4.23,4.23,0,0,1,1.67-1.08c2.45-.68,5-.38,7.44-.38q143.58,0,287.15,0c3.32,0,6.65-.37,10,.06a5.77,5.77,0,0,1,1.85.62A1.29,1.29,0,0,1,1166.21,1579.5Z" transform="translate(-304.32 475.2)"/><path class="cls-28" d="M494.34,1578.51l7-1.91a17.86,17.86,0,0,1,11.9-.06l1,.2a8.09,8.09,0,0,1,5.14,1.25,6.12,6.12,0,0,1,1.22.56.93.93,0,0,1-.26,1.16l-.18.17c-9-1.11-17.73,1.5-26.6,2.26a259.45,259.45,0,0,1-37.3.18,131.7,131.7,0,0,1-26.77-4.59,3.23,3.23,0,0,1-2.12-1.11c7.72.65,15.22,3,23,2.92q19.9.15,39.81.33A5.73,5.73,0,0,0,494.34,1578.51Z" transform="translate(-304.32 475.2)"/><path class="cls-108" d="M744.42,1398.88c11.71-14.19,26-24.57,44.17-28.59s36.17-2.82,53,6.28c-2.49,3-6.76,2.86-9.43,5.51-5.53-.22-10.61-2.6-16.07-3.25-21.23-2.53-39.76,3-55.41,17.83a142.36,142.36,0,0,0-11.89,13.39,5.31,5.31,0,0,1-1.43.66c-3.32.16-6.33,2.6-9.85,1.41-1.31-1.15-.73-2.47,0-3.51C739.72,1405.32,740.93,1401.28,744.42,1398.88Z" transform="translate(-304.32 475.2)"/><path class="cls-109" d="M873.13,1487.32c-11.41,16.53-26.16,28.56-45.88,33.71-18.12,4.73-35.83,3.66-52.89-4.49-1.11-1.78.26-2.45,1.47-2.92,2.78-1.07,5.46-2.47,8.5-2.74,7.71,1.12,15.33,2.62,23.25,2.58,20.67-.12,37.28-8.5,50.88-23.59,1.34-1.48,2.41-3.21,4.35-4,3.77-.71,7.22-2.87,11.23-2.52C875.34,1485,874.4,1486.21,873.13,1487.32Z" transform="translate(-304.32 475.2)"/><path class="cls-9" d="M1261.24,1500.68c-6,12.46-14.65,22.91-25,32-6.45,0-12.9,0-19.35,0-1.58,0-3.35.55-4.64-1,11.29-7.64,20.35-17.49,28.3-28.48,1.13-1.56,1.71-3.62,3.68-4.52,4,3.56,8.78,1.79,13.25,1.66C1258.81,1500.3,1260,1500,1261.24,1500.68Z" transform="translate(-304.32 475.2)"/><path class="cls-57" d="M744.42,1398.88c-2.35,4.29-5.67,8-7.33,12.72-.17,6.08-4.18,11.06-4.86,17a49,49,0,0,0-1,5,14.69,14.69,0,0,0-.57,5c0,.74,0,1.47,0,2.21,0,1,0,2,0,2.94s0,1.92,0,2.88c.12,1.27-.35,2.57.1,3.84,5.44-1.46,6-2.37,6.29-9.61,0-.66-.15-1.32-.2-2a16.13,16.13,0,0,1,.4-3.24,10.91,10.91,0,0,1,.26-1.29,17.19,17.19,0,0,0,.66-3.25,14.57,14.57,0,0,1,.5-2.79,125.69,125.69,0,0,1,5.34-14.2c.83-1.81,1.51-3.65,3.68-4.27a1.39,1.39,0,0,0,.67-.1c2.85,1,1.27,2.86.71,4.27-1.18,2.93-2.89,5.63-3.83,8.67-5.83,18.73-5.31,37,3.49,54.85.44.89,1,1.75,1.35,2.67.7,1.74,3,3.79,1,5.29-1.71,1.29-3.06-1.24-4.24-2.53-1.5-1.64-3.21-2.68-5.22-1.25s-.51,3.28.12,4.9a14.73,14.73,0,0,0,.94,1.75c1,1.53,2,3,3,4.48a21.88,21.88,0,0,1,1.87,2.62,1.23,1.23,0,0,1-.23,1.18c-1.78,1.15-2.35-.68-3-1.47a81.09,81.09,0,0,1-17.19-40c-2.7-20,2.86-37.61,13.89-53.93C741.9,1400,742.13,1397.92,744.42,1398.88Z" transform="translate(-304.32 475.2)"/><path class="cls-57" d="M873.13,1487.32c.5-1.19,1-2.37,1.49-3.56-.17-1.36.7-2.4,1.07-3.6.57-1.6.81-3.33,1.76-4.79a23.35,23.35,0,0,0,1.25-3,24.23,24.23,0,0,0,1.86-5.68c.35-1.11.7-2.21,1-3.33.55-1.62.48-3.36.92-5,.73-2.23.38-4.53.46-6.8-.07-1.58,0-3.15,0-4.72,0-1,0-2,0-3.06a10.71,10.71,0,0,0,0-1.5c-.27-1.77,1-4.6-2.13-4.63-2.75,0-3.88,2.25-4.06,4.83-.22,3-.09,6-.08,9,0,1,0,2,0,3a18.79,18.79,0,0,1-.26,3c-.37,1.66-.8,3.3-1.2,5-.41,1.33-.7,2.7-1.07,4-.34,1.08-.69,2.17-1.09,3.23a47.72,47.72,0,0,0-2,5c-.69,1.53-1.36,3.06-2.18,4.52-.76,1.09-1.56,2.13-3.14,1.69-1.85-1.67-.67-3.38,0-5,9.54-21.93,8.75-43.43-2.53-64.55-1-1.87-2.46-3.58-2.4-5.9.48-1.52,1.47-1.11,2.48-.65a7.62,7.62,0,0,1,2,2.1c2.77,3.17,5.05,2.25,7.06-.83a12.82,12.82,0,0,0-1.57-2.89A13.68,13.68,0,0,1,869,1400a1.47,1.47,0,0,1,.24-1.15c1.32-1.31,1.58.15,2.09.83a77.77,77.77,0,0,1,15.19,38.78c2,17.48-2.64,33-11.07,47.91C875,1487.23,874.69,1489,873.13,1487.32Z" transform="translate(-304.32 475.2)"/><path class="cls-110" d="M848.62,1380.57c4.29,2.55,8.48,5.21,11.7,9.13-1.64,4-5.38,3.41-8.61,4-4.79-2.35-9.77-4.45-12.69-9.35A9,9,0,0,1,848.62,1380.57Z" transform="translate(-304.32 475.2)"/><path class="cls-111" d="M848.62,1380.57c-3.18,1.16-6.57,1.85-9.29,4.06-3,.46-5.45-.29-7-3.1,1.62-4.4,6.16-3.34,9.27-5A17.71,17.71,0,0,1,848.62,1380.57Z" transform="translate(-304.32 475.2)"/><path class="cls-112" d="M784.39,1511.66c-3.24,1.85-7.41,1.76-10,4.88a17,17,0,0,1-6-3c2.37-4.5,6.92-4.15,11-4.94C781.33,1509.12,783.88,1508.75,784.39,1511.66Z" transform="translate(-304.32 475.2)"/><path class="cls-113" d="M779.38,1509.66a26.62,26.62,0,0,0-11,3.83,10.39,10.39,0,0,1-4.18-2.61c2.44-4.33,6.66-4.19,10.78-4.32C776.75,1507.19,779,1507.07,779.38,1509.66Z" transform="translate(-304.32 475.2)"/><path class="cls-114" d="M761.27,1508.8a9,9,0,0,1-4-3.08c1.09-4.23,5.11-3.36,8-4.57,2.2.22,4.08.85,4.38,3.46C767.62,1507.55,764.26,1507.79,761.27,1508.8Z" transform="translate(-304.32 475.2)"/><path class="cls-115" d="M761.27,1508.8c1.87-3.24,5.78-2.45,8.37-4.27,2.5,0,5.1-.26,5.64,3.18-4.09-.34-7.57,1.42-11.06,3.17A5.55,5.55,0,0,1,761.27,1508.8Z" transform="translate(-304.32 475.2)"/><path class="cls-116" d="M765.35,1501.58c-2.17,2.36-6,1.48-8,4.14a8,8,0,0,1-3.28-2.94c1.89-3.06,5.22-3.12,8.19-4C764,1499,765.48,1499.33,765.35,1501.58Z" transform="translate(-304.32 475.2)"/><path class="cls-117" d="M851.26,1392.72a20.61,20.61,0,0,0,9.06-3l2,2c-.81,4.53-4.86,3.7-7.81,4.71C852.55,1396,851,1395.14,851.26,1392.72Z" transform="translate(-304.32 475.2)"/><path class="cls-118" d="M762.64,1499.48l-8.61,3.3-2.94-3.06a13.05,13.05,0,0,1,8.93-3C761.45,1497.13,762.52,1497.85,762.64,1499.48Z" transform="translate(-304.32 475.2)"/><path class="cls-119" d="M747.38,1496.6c0-.29-.07-.58-.1-.87,1.47-3.78,5.07-2.84,7.92-3.56,1.77.67,3.74,1.19,3,3.83-2.9,1.22-5.69,3.06-9.08,1.73Z" transform="translate(-304.32 475.2)"/><path class="cls-120" d="M869.23,1398.86c0,.28,0,.56.08.84-.94,4.47-4.69,3.84-7.83,4.33-1.59-.62-2.67-1.57-2.28-3.49,2.39-2,5.5-2,8.26-3Z" transform="translate(-304.32 475.2)"/><path class="cls-121" d="M749.16,1497.73c3.14-.49,6-2.41,9.29-2.1,1.49-.17,2.13.52,2,2l-9.38,2.11C750.45,1499.06,749.8,1498.4,749.16,1497.73Z" transform="translate(-304.32 475.2)"/><path class="cls-122" d="M854.34,1395.69c2.47-1.72,6.21-.94,8-4l1.89,2.26c-1,4.32-4.91,3.53-7.86,4.41C855,1398,853.9,1397.42,854.34,1395.69Z" transform="translate(-304.32 475.2)"/><path class="cls-123" d="M856.34,1397.68c2.46-1.6,5.94-1.06,7.88-3.75,1.44.32,1.9,1.55,2.46,2.69-2.55,2.5-5.67,3.19-9.11,2.92C856.78,1399.17,856.06,1398.76,856.34,1397.68Z" transform="translate(-304.32 475.2)"/><path class="cls-124" d="M857.44,1398.65c3.33.47,6.09-1.67,9.24-2l.78.89c-1.93,3.06-5.28,2.51-8.14,3.18C857.75,1400.88,857,1400.36,857.44,1398.65Z" transform="translate(-304.32 475.2)"/><path class="cls-94" d="M1286.13,1105.71c-6.89,0-6.89,0-6.89,7.07q0,159.36,0,318.72c0,2.07.84,4.36-1,6.19V922.74c1.79-1.83,1-4.12,1-6.19q.08-174.33.07-348.66c0-3.34-1-7,2.43-9.63.73-.56.52-2.51.52-3.82q0-61.19,0-122.38c-4.5-12.46-2.75-25.42-3-38.22-.12-7,0-7,6.86-7.06,0,1.83.12,3.66.12,5.49q0,354,0,708C1286.23,1102.05,1286.16,1103.88,1286.13,1105.71Z" transform="translate(-304.32 475.2)"/><path class="cls-58" d="M1286.4,1393.7a1.84,1.84,0,0,1,0-1l12.83-.1C1295.1,1395,1290.65,1393.09,1286.4,1393.7Z" transform="translate(-304.32 475.2)"/><path class="cls-125" d="M1300.19,1437.62q0-255.46,0-510.91,0-398.18,0-796.36c0-2.49.11-5,.17-7.49,2.53-1.33,4-.74,4,2.29-.32.54-.67,1.06-1,1.58-1.19,3.07-.64,6.27-.64,9.41q0,647.64-.06,1295.28c0,3.28.71,6.68-.9,9.84C1299.3,1441.49,1299,1440.8,1300.19,1437.62Z" transform="translate(-304.32 475.2)"/><path class="cls-126" d="M1300.34,74.86q0-48.54,0-97.08c1.48-1.27,3-2.83,4.43,0q.12,44.37,0,88.75c-.46,5,.26,10.1,0,15.14-.36,4.68.25,9.36,0,14-.32,4,.25,8.09,0,12.14-.69,4.63,1.37,9.53-1.37,14-3.17-.42-2-3-2.06-4.65-.13-11-.08-22-.06-32.94A41,41,0,0,0,1300.34,74.86Z" transform="translate(-304.32 475.2)"/><path class="cls-125" d="M1300.36-24.21c-.07-1.33-.19-2.66-.19-4V-322.65c0-.83,0-1.67.08-2.5a1.25,1.25,0,0,1,1.66.6c1.26,2.7.72,5.58.72,8.38q.06,144.21,0,288.42C1302.13-26.42,1304.07-23.47,1300.36-24.21Z" transform="translate(-304.32 475.2)"/><path class="cls-127" d="M1296.27,1438.71l-2,0c-2.48-1.54-5.25-.84-7.9-1l0-13c4.16.55,9.71-2,12.13,1.27,2,2.7.7,7.9.86,12a.91.91,0,0,1-.16,1.14,3.33,3.33,0,0,1-1.22.41A2.27,2.27,0,0,1,1296.27,1438.71Z" transform="translate(-304.32 475.2)"/><path class="cls-128" d="M1300.34,74.86a18,18,0,0,1,1.91,9q-.06,16.4,0,32.79c0,1.73-.69,3.69,1,5.12a3.19,3.19,0,0,1,3.49-.64,2,2,0,0,1,1,1.07,2.86,2.86,0,0,1,0,1.48,2.79,2.79,0,0,1-2.31,1.63,1.7,1.7,0,0,1-1.22-.69c-.82-1.61-2.21-2-3.85-1.78Z" transform="translate(-304.32 475.2)"/><path class="cls-129" d="M1299.23,1438.68a2.82,2.82,0,0,0,.13-.77l.83-.29c.27,1.35-.34,2.88.86,4,2.23,4.23,1.26,13.25-1.77,16.39a2.19,2.19,0,0,1-2.07-2.38C1298,1450,1296.78,1444.13,1299.23,1438.68Z" transform="translate(-304.32 475.2)"/><path class="cls-130" d="M1300.36-24.21c1.92,0,1.15-1.16.94-2.1a3.36,3.36,0,0,1,1.83-.79,4.58,4.58,0,0,1,2,.33,5.56,5.56,0,0,1,1.68,1.24,4.8,4.8,0,0,1,.74,1.2l.06.72a1.7,1.7,0,0,1-.89,1,2.26,2.26,0,0,1-2.6-.66l-3.77,1Z" transform="translate(-304.32 475.2)"/><path class="cls-131" d="M1301.08-325.14h-.83c-.43-1.36.24-3-.91-4.17l-.27-7.69c-.26-1.14.34-1.37,1.3-1.24a3.93,3.93,0,0,1,1,2.14,23.61,23.61,0,0,0,.87,5.53C1302.49-328.63,1302.87-326.65,1301.08-325.14Z" transform="translate(-304.32 475.2)"/><path class="cls-69" d="M909.3-461.07h-62l-111-.13a1.28,1.28,0,0,1,.67-1.65c2.22-1,4.58-.69,6.9-.69q202.35,0,404.71,0c2.32,0,4.68-.29,6.92.63a1.64,1.64,0,0,1,.93,1.62l-70.19.23h-177Z" transform="translate(-304.32 475.2)"/><path class="cls-80" d="M736.35-461.95c0,.25,0,.5,0,.75l-17,.12-7-.12a1.18,1.18,0,0,1,.59-1.6c7.11-1.43,14.28-.7,21.43-.42A2.67,2.67,0,0,1,736.35-461.95Z" transform="translate(-304.32 475.2)"/><path class="cls-132" d="M1300.44-336.16l-.33-1.93c-.95-1-.84-2.23-.81-3.46l-1-2.46a50.79,50.79,0,0,0-1.51-8.2c.29-1.72-1.23-3.05-1-4.76-.33-2.08-1.67-3.91-1.54-6.1l-1-4.15c-2.39-2.75-3.33-6.18-4.45-9.52-1.73-3.33-3.24-6.76-5.17-10-4.73-8.61-10.62-16.44-16.6-24.2-4.28-4.31-8.64-8.55-12.85-12.93-.9-.95-3.11-1.73-1.32-3.75,5.9,1.41,9.33,6.31,13.06,10.22,11.53,12.09,21.31,25.52,27.93,41.05A135.2,135.2,0,0,1,1304.57-334c.35,4.44,1.78,8.86.28,13.36a72.92,72.92,0,0,0-.19,8.49q0,138.58,0,277.17c0,2.91.81,6-1.38,8.64h-1.94q0-145.66-.07-291.34c0-2.5-.1-5-.15-7.49,0-1.93,0-3.86,0-5.79C1300.32-332.6,1301.18-334.48,1300.44-336.16Z" transform="translate(-304.32 475.2)"/><path class="cls-133" d="M1267.23-411.1a113.82,113.82,0,0,1,16.79,24,1.42,1.42,0,0,1-.81,1c-4.7-7.27-8.77-15-14.9-21.24-.4-.78-.8-1.55-1.21-2.32A1.27,1.27,0,0,1,1267.23-411.1Z" transform="translate(-304.32 475.2)"/><path class="cls-97" d="M1289-377.14l4.19,9.92c-4.22-1.94-3.53-6.57-5.36-9.81A.74.74,0,0,1,1289-377.14Z" transform="translate(-304.32 475.2)"/><path class="cls-96" d="M1289-377.14l-1.17.11-4.62-9,.81-1Z" transform="translate(-304.32 475.2)"/><path class="cls-30" d="M1297-352.15c1.26,2.58,2.21,5.22,1.27,8.14a20.59,20.59,0,0,1-1.78-8.14Z" transform="translate(-304.32 475.2)"/><path class="cls-134" d="M1294.21-363.07a15.67,15.67,0,0,1,1.88,5.93c-.3.44-.59.44-.87,0C1294.55-359.07,1292.8-360.8,1294.21-363.07Z" transform="translate(-304.32 475.2)"/><path class="cls-135" d="M1299.3-341.55a3.7,3.7,0,0,1,.81,3.46l-1,1.08C1298.11-338.58,1297.64-340.12,1299.3-341.55Z" transform="translate(-304.32 475.2)"/><path class="cls-136" d="M1295.22-357.15h.87c-.06,1.73,1.76,3.11.91,5h-.51C1295.88-353.77,1295-355.32,1295.22-357.15Z" transform="translate(-304.32 475.2)"/><path class="cls-137" d="M1156.46-461.29a7.92,7.92,0,0,0-.31-.75,2.58,2.58,0,0,1,1.55-1.87c3-.55,6-1.43,8.68,1q.19,1.11-.87.72C1162.59-461,1159.51-461.28,1156.46-461.29Z" transform="translate(-304.32 475.2)"/><path class="cls-138" d="M1181.11-460c-3.3,1.41-6.47-1-9.75-.33,0-.25-.08-.5-.1-.75a1,1,0,0,1,.25-1.43C1175.15-463.41,1178.59-463.48,1181.11-460Z" transform="translate(-304.32 475.2)"/><path class="cls-139" d="M1171.24-461.94a7.3,7.3,0,0,0,0,.81c-1.94-.2-4.14,1-5.75-1a1.38,1.38,0,0,0,1-.13C1168.16-463.51,1169.77-463.59,1171.24-461.94Z" transform="translate(-304.32 475.2)"/><path class="cls-39" d="M1221.24-444.93c-3.86-2-7.69-4-11.59-5.86-1-.49-2.23-.62-2.13-2.15a1.88,1.88,0,0,1,2.21-.59c6.14,2,11.78,5,17.38,8.15.84.47,1.6,1.21,1.16,2.41a1.56,1.56,0,0,1-1.48-.06C1224.72-443,1223.41-445.24,1221.24-444.93Z" transform="translate(-304.32 475.2)"/><path class="cls-140" d="M1267.23-411.1c0,.49-.08,1-.13,1.47l-16.8-16.66c-.33-.75.12-1,.72-1.26a1.22,1.22,0,0,1,1,.51C1257-421.62,1262.9-417.12,1267.23-411.1Z" transform="translate(-304.32 475.2)"/><path class="cls-141" d="M1240.79-434l-8.66-5.67a1,1,0,0,1-.15-1.37c4.68.56,8.32,2.61,10.27,7.1A1.63,1.63,0,0,1,1240.79-434Z" transform="translate(-304.32 475.2)"/><path class="cls-98" d="M1251.24-427.14l-.94.85-5.16-4.38A1.09,1.09,0,0,1,1245-432C1248.53-432.28,1250.3-430.24,1251.24-427.14Z" transform="translate(-304.32 475.2)"/><path class="cls-142" d="M1232.23-440.95c0,.42-.06.83-.1,1.24a15.78,15.78,0,0,1-5.34-3.32l1.56-.15C1230.32-443.62,1231.65-442.93,1232.23-440.95Z" transform="translate(-304.32 475.2)"/><path class="cls-129" d="M1245.23-432l-.09,1.35-4.35-3.36,1.48-.12C1244.1-434.62,1244.84-433.56,1245.23-432Z" transform="translate(-304.32 475.2)"/><path class="cls-143" d="M1171.24-461.94l-4.77-.36c-3-1.19-6.14-.82-9.25-.72-2,.71-4,.35-5.94.35q-216.1,0-432.21.15c-24.8,0-49.62.67-74.41.27-48.62-.79-97.24-.25-145.86-.3-13.14,0-26.29.39-39.43.41-2.78-.12-5.57.28-8.33-.32a1.43,1.43,0,0,1-.92-1.39,2.68,2.68,0,0,1,1.37-1.07c3.77-.65,7.64.37,11.39-.72a12.73,12.73,0,0,1,1.83-.41c1.84-.13,3.68-.08,5.51-.08h689.2c1.83,0,3.67-.05,5.49.07a12.31,12.31,0,0,1,1.8.4c3.72,1.14,7.6,0,11.35.8,7.22.88,14.49,1.56,21.2,4.72,3.56-.5,6.51,2.09,10,2,4.29,1.74,8.67,3.26,12.88,5.2a41.46,41.46,0,0,0,4.3,1.93c1.36.75,2.8,1.35,4.12,2.18s2.41,1.87,3.7,2.68a5.52,5.52,0,0,1,4,2c24.75,14,43,34,56.18,59.19a141.74,141.74,0,0,1,13.33,39,146.23,146.23,0,0,1,2.42,27.72q.09,875.45,0,1750.9c0,2,.22,4-.39,5.95a123,123,0,0,1-4.41,31.81c-1.51,5.57-2.4,11.34-5.27,16.49-.72,1.27-.86,3-2.85,3a3.39,3.39,0,0,1-1-1.59c-.24-5.18,2.34-9.67,3.8-14.36,4.28-13.81,5.72-27.87,5.72-42.23q0-648.72,0-1297.43c0-3.64-.46-7.35,1.26-10.8a.64.64,0,0,1,.24-.66,85,85,0,0,1-.51-12.86V-.4c0-7.91-.1-15.82.24-23.73l.07.1c-1.52-3.13-1.31-6.48-1.31-9.81q0-137.65,0-275.31c0-13.83-.34-27.59-3.14-41.17a140.52,140.52,0,0,0-33.77-64c-16-17.39-35.14-29.58-56.94-38.16a86.14,86.14,0,0,0-21.55-5.68,6.86,6.86,0,0,1-2.19-.42,6.94,6.94,0,0,1-4.86-1.46h-2.31C1178-461.58,1174.63-461.8,1171.24-461.94Z" transform="translate(-304.32 475.2)"/><path class="cls-144" d="M1190.18-459.1c11.26,0,21.3,4.67,31.1,9.2,10,4.64,19.9,9.63,28.76,16.54,16,12.46,29.42,27.08,39.37,44.73a147.37,147.37,0,0,1,13.33,32.56,26.76,26.76,0,0,1,.5,3.92,214.32,214.32,0,0,1,3.53,39.51q-.13,140.77-.07,281.55c0,2,.48,4-.46,5.89l-1-.94c-1.58-2.26-1-4.84-1-7.29q-.06-138.93,0-277.86c0-3.62-1.19-7.24-.07-10.86-.93-22.54-5.82-43.94-16.8-64a151,151,0,0,0-22.94-30.85c-3.53-3.74-6.92-8.49-12.47-10.09l-.79-.1-6-4.88-3-2.13a47.82,47.82,0,0,0-10-6.8l-3.88-2.23a84.1,84.1,0,0,0-20.83-9.76c-3-.73-5.82-2.63-9.15-2.18a8.33,8.33,0,0,0-4.4-1.77C1192.85-457.88,1190.45-456.67,1190.18-459.1Z" transform="translate(-304.32 475.2)"/><path class="cls-137" d="M1190.18-459.1l4.27,1.81c-.08.63-.65.67-1.06.88-1.71-.57-3.67-.28-5.17-1.55-.33-.24-.43-.48-.32-.72s.22-.35.33-.35Z" transform="translate(-304.32 475.2)"/><path class="cls-145" d="M1193.39-456.41l1.06-.88c1.65.1,3.16.46,3.92,2.17Z" transform="translate(-304.32 475.2)"/><path class="cls-43" d="M1188.23-459c0,.36,0,.71,0,1.07-1.73-.39-4,.37-4.8-2.08Z" transform="translate(-304.32 475.2)"/><path class="cls-40" d="M366.4-430.14l5-3.84a1.48,1.48,0,0,1,1,.87l-2,2-2.91,1A.65.65,0,0,1,366.4-430.14Z" transform="translate(-304.32 475.2)"/><path class="cls-142" d="M366.4-430.14h1.1c-1.05,1.74-2.31,3.17-4.62,2.94A9,9,0,0,1,366.4-430.14Z" transform="translate(-304.32 475.2)"/><path class="cls-131" d="M458.49-463c2.16-.06,4.32-.19,6.48-.19h687.26c1.66,0,3.33.09,5,.14l-1.07,1-416.31-.06c-1.17,0-2.33.1-3.49.15h-24c-7.65.67-15.32.12-23,.3H662.43c-7.69-.19-15.39.37-23.07-.3q-38-.06-75.94-.1-36.48,0-73,.06c-10.11.76-20.23.15-30.35.31C459.25-461.66,458.44-461.79,458.49-463Z" transform="translate(-304.32 475.2)"/><path class="cls-85" d="M458.49-463c4.46,1.79,9.1.55,13.65.75,6.1.27,12.22.17,18.32.23-4.27,1.7-8.73.32-13.08.82l-19,.1-5.2-.2c-1.21-.86-2.78.08-4-.78,0-.84.21-1.36,1.18-1.09Z" transform="translate(-304.32 475.2)"/><path class="cls-77" d="M639.36-461.95h23c.32.18.42.35.31.51s-.21.25-.33.25l-4,.1h-18l-1-.1C639.35-461.44,639.36-461.7,639.36-461.95Z" transform="translate(-304.32 475.2)"/><path class="cls-76" d="M689.36-461.95h23c0,.25,0,.5,0,.75l-17,.12-6-.12c-.33-.17-.43-.34-.32-.51S689.24-461.95,689.36-461.95Z" transform="translate(-304.32 475.2)"/><path class="cls-38" d="M376.28-437.19a58,58,0,0,1,11.37-6.89l.25-.06a1.61,1.61,0,0,1-.49,2.07c-3.57,1.08-6.12,4.21-9.85,5A.74.74,0,0,1,376.28-437.19Z" transform="translate(-304.32 475.2)"/><path class="cls-99" d="M376.28-437.19l1.28.09c-1.23,1.94-3.43,2.63-5.12,4l-1-.87Z" transform="translate(-304.32 475.2)"/><path class="cls-39" d="M403.43-451.93l6-2.32c3.73-1.73,7.51-3.31,11.67-3.65.78.27,1.42.66,1.25,1.65a122.94,122.94,0,0,0-18,5.95C403.65-450.62,403.18-451.08,403.43-451.93Z" transform="translate(-304.32 475.2)"/><path class="cls-96" d="M403.43-451.93l.92,1.63c-.31.13-.62.24-.94.35l-4.92,1.87c-1.09.36-1.34-.13-1.11-1.09Z" transform="translate(-304.32 475.2)"/><path class="cls-89" d="M422.33-456.25,421-457.39c1.21-1.89,3.11-2.14,5.11-2.17a2,2,0,0,1,1.43,1.58l-4.15,1.76Z" transform="translate(-304.32 475.2)"/><path class="cls-87" d="M444.4-461.07l-2,1-9,.83a1.14,1.14,0,0,1,.16-1.46,14.9,14.9,0,0,1,10.74-1.82A1,1,0,0,1,444.4-461.07Z" transform="translate(-304.32 475.2)"/><path class="cls-146" d="M433.39-460.1c0,.3,0,.6,0,.9L427.52-458l-1.08-.91c.65-1.43,2.16-1.17,3.29-1.68C431-460.44,432.28-461.15,433.39-460.1Z" transform="translate(-304.32 475.2)"/><path class="cls-78" d="M689.36-461.95c0,.25,0,.5,0,.75l-14,.12-13-.11c0-.25,0-.51,0-.76Z" transform="translate(-304.32 475.2)"/><path class="cls-39" d="M397.38-449.17l1.1,1.09c-3.47,1.44-6.46,4.19-10.57,3.94l-.26.06C390.19-447.11,394.21-447.34,397.38-449.17Z" transform="translate(-304.32 475.2)"/><path class="cls-147" d="M444.4-461.07c0-.29,0-.59,0-.89,1.5-1.63,3.11-1.57,4.8-.31,1.26.58,2.86-.2,4,1Z" transform="translate(-304.32 475.2)"/><path class="cls-148" d="M642.36-321.07c-1.71-.84-2.16-2.6-3-4.07-.13-4.48,1-8.39,5-11a1.69,1.69,0,0,1,.56,1.17c-.26,2-2,3.45-2.21,5.49a15.82,15.82,0,0,0,.25,5.86,4.86,4.86,0,0,1,.07,1.37A2.27,2.27,0,0,1,642.36-321.07Z" transform="translate(-304.32 475.2)"/><path class="cls-149" d="M644.46-334.82c0-.44-.07-.88-.1-1.31,2.16-1.48,4.66-.9,7-1.12l2,.1,2,2.45a4,4,0,0,1-2.94.4C649.82-335.37,647.06-333.92,644.46-334.82Z" transform="translate(-304.32 475.2)"/><path class="cls-150" d="M642.36-321.07l.1-1.19c1.55-.4,2.52.83,3.76,1.32,7.16,1.2,10-.64,10.83-7.09.08-1.38-.52-2.81.29-4.14l1-1c1.54,2.53.79,5.38,1.09,8.08-.78,4.6-4.4,6.32-8.1,7.95-2,0-4.09.11-6-.92l-3.09-2.07C642.32-320.44,642.33-320.76,642.36-321.07Z" transform="translate(-304.32 475.2)"/><path class="cls-151" d="M657.34-332.17a6.35,6.35,0,0,1,1,3.94,3,3,0,0,1-2.8,1,6,6,0,0,1-3.7-2.61c-1-1.95-1.47-3.84.61-5.45l2.93.63Z" transform="translate(-304.32 475.2)"/><path class="cls-33" d="M1161.27,1572.69c-1.49,1.61-3.44,1-5.2,1q-347.74,0-695.49,0c-1.75,0-3.71.65-5.19-1Z" transform="translate(-304.32 475.2)"/><path class="cls-127" d="M1294.23,1443.69c-.37,2.33.91,4.89-1,7C1293.62,1448.36,1292.34,1445.8,1294.23,1443.69Z" transform="translate(-304.32 475.2)"/><path class="cls-106" d="M1309.24,1439.69q0-880.53-.15-1761.07c0-36.73-13.27-68.91-38.49-96a148,148,0,0,0-30.69-25,9.12,9.12,0,0,1-1.66-1.78c7.56,1.34,12.85,6.67,18.41,11.14a134.43,134.43,0,0,1,26.68,28c12,17.3,21,35.79,25,56.67a114.39,114.39,0,0,1,2,24.2c.91,1.73.46,3.6.46,5.4q0,876,0,1752c0,1.8.45,3.67-.46,5.4v1C1309.9,1440.16,1309.57,1440.16,1309.24,1439.69Z" transform="translate(-304.32 475.2)"/><path class="cls-107" d="M1310.24,1438.69V-324.15c2,1.55.94,3.72.94,5.56q.09,483.17.06,966.35,0,392.68-.06,785.37C1311.18,1435,1312.25,1437.14,1310.24,1438.69Z" transform="translate(-304.32 475.2)"/><path class="cls-107" d="M463.39-466.14c1.47-1.63,3.43-1,5.18-1q346.26,0,692.51,0c1.75,0,3.7-.66,5.18,1l-.9.43c-1.33.09-2.66.06-4,.06H468.28c-1.33,0-2.66,0-4-.06Z" transform="translate(-304.32 475.2)"/><path class="cls-107" d="M1309.24,1439.69h1c1,6.73-.59,13.25-1.43,19.85-1,7.5-4.32,14.5-4.58,22.15-4.22,5.31-5.22,12.2-8.74,17.89-.89,1.45-1.2,3.05-3.25,3.11-1-5.34,2.84-8.86,5-13,2.77-2.13,3.6-5.62,4.43-8.45C1305.66,1467.69,1308.62,1453.88,1309.24,1439.69Z" transform="translate(-304.32 475.2)"/><path class="cls-107" d="M1230.25-448.14l-4-2c-1.1-1.14-2.68-1.3-4-2-4.24-2.19-9.62-1.93-13-6,9,.95,16.51,5.44,24,10A2.38,2.38,0,0,1,1230.25-448.14Z" transform="translate(-304.32 475.2)"/><path class="cls-107" d="M1199.26-460.14c-7.14-.61-13.77-3.87-21-4l-.38-.5.38-.5c6.22-.58,12.11,1.69,18.23,2.06C1198.28-463,1199.13-461.87,1199.26-460.14Z" transform="translate(-304.32 475.2)"/><path class="cls-107" d="M429.44-460c-.64,1.32-2.08.54-3,1.13l-5.46,1.5-11.57,3.14c6.21-3.61,12.71-6.36,20-6.89C430-460.79,430-460.42,429.44-460Z" transform="translate(-304.32 475.2)"/><path class="cls-106" d="M429.44-460l-.05-1.12a6.69,6.69,0,0,0,4-1c3.27-1,6.7-1.19,10-2h0a11,11,0,0,1,7,0v1l-1.16.87-4.8.31c-3.71.48-7.49.46-11,1.86Z" transform="translate(-304.32 475.2)"/><path class="cls-107" d="M450.39-464.14h-7c6.49-2.4,13.27-2,20-2h0c.33.22.44.45.33.67s-.22.33-.33.33h-1c-3.58,1.35-7.43-.4-11,1Z" transform="translate(-304.32 475.2)"/><path class="cls-107" d="M1167.26-465.14h-1q-.49-.33-.33-.66c.11-.23.22-.34.33-.34h0c4,.51,8.15-1.08,12,1h0A26.48,26.48,0,0,1,1167.26-465.14Z" transform="translate(-304.32 475.2)"/><path class="cls-107" d="M443.39-464.14a22,22,0,0,1-10,2C436.48-464,439.91-464.23,443.39-464.14Z" transform="translate(-304.32 475.2)"/><path class="cls-106" d="M1230.25-448.14h3l1,2A5.42,5.42,0,0,1,1230.25-448.14Z" transform="translate(-304.32 475.2)"/><path class="cls-152" d="M1296.27,1438.71l2,.07a109.78,109.78,0,0,1-3.44,33.94c-3.08,12.23-8.88,23.3-14.13,34.61-3.14,7.91-9,14-13.86,20.79-20.75,23.63-46.58,39-76.75,47.45a12.26,12.26,0,0,1-2.32.48c-7.44,1.59-14.88,3.18-22.57,2.55l-295.36,0c-3.83,0-7.66,0-11.49.05-.68-1-2.48-1.16-2.06-2.91,11.33,0,22.66-.09,34-.1,87.31,0,174.63.24,262-.12,35.26-.14,67.17-10.73,94.55-33.76,26.86-22.59,42.69-51.28,48.29-85.72C1296,1450.38,1296.77,1444.55,1296.27,1438.71Z" transform="translate(-304.32 475.2)"/><path class="cls-96" d="M763.38,1575.84l-8.09,3.73c-1.93-.78-4-.39-5.93-.39l-223.31,0c-2,0-4,.33-5.95-.31l0,.13a.88.88,0,0,1,.27-1.35l153.19.09c19,0,37.93.11,56.89,0,11-.09,22.23,1.5,32.9-2.84.32.23.43.45.32.67S763.48,1575.84,763.38,1575.84Z" transform="translate(-304.32 475.2)"/><path class="cls-104" d="M763.38,1575.84c0-.34,0-.67,0-1q43.92-.75,87.83,0c.23.9,0,1.38-1,.93Z" transform="translate(-304.32 475.2)"/><path class="cls-153" d="M513.26,1576.54l-11.9.06-1.13-1.08a2.81,2.81,0,0,0,.25-.74c3.14-.06,6.28-.17,9.42-.14C511.29,1574.65,513.07,1574.27,513.26,1576.54Z" transform="translate(-304.32 475.2)"/><path class="cls-154" d="M850.21,1575.77l1-.93,5.07.92c.72.94,2.11,1.41,2.06,2.91l-.45,0-.44-.06c-2.54.12-4.2-2.59-6.85-2.11C850.46,1576.29,850.33,1576,850.21,1575.77Z" transform="translate(-304.32 475.2)"/><path class="cls-142" d="M520.39,1577.62l-.27,1.35-5.87-2.23C516.68,1574.36,518.39,1577,520.39,1577.62Z" transform="translate(-304.32 475.2)"/><path class="cls-107" d="M876.32,1580.76l138.9-.08q75.21,0,150.41,0c1.87,0,4,.86,5.59-1.1a.82.82,0,0,1,.5-1.27c5.42-.33,10.63-2,16-2.57,7.57-.26,14.5-3.25,21.57-5.44a70.88,70.88,0,0,0,17.69-7.69,9,9,0,0,1,1.3-.69c6.84-2,12.21-6.66,17.87-10.6a160,160,0,0,0,26.48-23.25c6-6,10.06-13.6,15.16-20.34.93-1.22,1.19-3.29,3.45-3-.49,6.77-5.32,11.24-8.93,16.24a137.09,137.09,0,0,1-22.22,24.17,159.9,159.9,0,0,1-23.43,16.48c-17.25,10-35.88,15.73-55.41,18.88a86.75,86.75,0,0,1-13.84,1.17q-142.68.11-285.36,0C880.13,1581.65,878,1582.35,876.32,1580.76Z" transform="translate(-304.32 475.2)"/><path class="cls-143" d="M1291.24,1504.69l-14.11,20.24a11.17,11.17,0,0,1-3.89,3.75,2.27,2.27,0,0,1-.57-2.07c2.83-5.64,6.95-10.44,10.47-15.62a154.9,154.9,0,0,0,9.33-16.29c1-2,1.59-4.87,4.76-5h0c-.13,4.92-4.24,8.32-5,13A2.07,2.07,0,0,1,1291.24,1504.69Z" transform="translate(-304.32 475.2)"/><path class="cls-104" d="M520.1,1578.84l197.43-.1c10.83,0,21.66,0,32.49,0,1.77,0,3.69-.62,5.27.8-1.32.09-2.64.26-4,.26q-114,0-228,0c-1,0-2-.07-3-.11A3,3,0,0,1,520.1,1578.84Z" transform="translate(-304.32 475.2)"/><path class="cls-154" d="M1171.57,1578.85a1.88,1.88,0,0,0-.35.69l-5,0c0-.27,0-.54,0-.81A5.84,5.84,0,0,1,1171.57,1578.85Z" transform="translate(-304.32 475.2)"/><path class="cls-38" d="M1171.57,1578.85l-5.38-.16-1-.09,23.46-3.85a1.28,1.28,0,0,1-.64,1.83C1182.47,1576.94,1177.18,1579.06,1171.57,1578.85Z" transform="translate(-304.32 475.2)"/><path class="cls-95" d="M857.44,1398.65l1.88,2c.75,1,1.49,1.9,2.24,2.84a.56.56,0,0,1-.13.9c2.65,5.68,5.84,11.18,7.86,17.09,6.44,18.82,6.06,37.46-2.69,55.64-.51,1-1.92,2.19-.35,3.51a1.25,1.25,0,0,1,.47,1.19,7.68,7.68,0,0,1-3.66,4.7c-9.61,11.92-21.18,21-36.08,25.44a69.88,69.88,0,0,1-36,1.14c-2.19-.5-4.7.26-6.6-1.48a10.28,10.28,0,0,0-5-2,8.88,8.88,0,0,0-4.1-2l-5.64-3.18-4.29-3a4.54,4.54,0,0,0-2.71-2.09l-2.17-1.88-2-2c-.54-1.56-2.33-1.7-3.22-2.85a7.5,7.5,0,0,1-3-2.65c-3.11-3.93-6.55-.51-9.84-.45a24,24,0,0,1-2.32-3.75c-.7-1.75-3.27-3.78-.08-5.44,2.74-1.41,5.65-2.16,7.8,1.21.79,1.23,1.27,2.74,3.52,3.58-3.77-7.21-7.45-13.92-9.08-21.46-3.71-17.19-2.83-33.86,5.4-49.78.65-1.25,2.56-2.56.75-4.34,11.76-21.63,40.81-36,65.71-32.54a102,102,0,0,1,18.28,4.37l7,3.1,11.93,8.09,3.08,3c.62.71.87,1.79,2,2Z" transform="translate(-304.32 475.2)"/><path class="cls-155" d="M747.67,1409.8c-3.68,5.91-5.57,12.59-8.13,19a10.72,10.72,0,0,1-5.88,2.48c-2.12.2-3.24-.56-2.48-2.89a51.65,51.65,0,0,1,5.91-16.77C740.78,1412,743.9,1409,747.67,1409.8Z" transform="translate(-304.32 475.2)"/><path class="cls-156" d="M863.06,1486.56l3.26-4.87a13.32,13.32,0,0,1,7.23-2.75c1.2-.07,2.79-.38,2.75,1.72a4.47,4.47,0,0,1-1.68,3.1C870.69,1484.38,867.21,1486.84,863.06,1486.56Z" transform="translate(-304.32 475.2)"/><path class="cls-49" d="M732.42,1469.06c-.34-3.81,2-5.06,4.49-5.22,4.35-.26,4.85,3.55,5.25,6.48.52,3.82-3.16,3.94-5.46,4.17C732.5,1474.92,733.51,1470.79,732.42,1469.06Z" transform="translate(-304.32 475.2)"/><path class="cls-157" d="M738.26,1439.64a36,36,0,0,1-.69,7.39c-.62,4.47-4.35,4.72-7.06,4.65-2.24,0-.81-3.23-1.16-5,1.89-2.35,6.33-1.44,6.94-5.43C736.68,1440.39,737,1439.41,738.26,1439.64Z" transform="translate(-304.32 475.2)"/><path class="cls-158" d="M742.35,1489.68c4.56-3.87,7.73-3.85,10.91.08-2.11,2.38-5.25,2.65-7.91,3.92Z" transform="translate(-304.32 475.2)"/><path class="cls-159" d="M731.18,1428.37c.3,1.51.85,2.31,2.68,1.66s3.62-1.61,5.68-1.25l-.45,2.9c-2.11,3.3-5.38,3.44-8.78,3.25a1,1,0,0,1-.07-1.38C730.29,1431.78,730.1,1430,731.18,1428.37Z" transform="translate(-304.32 475.2)"/><path class="cls-160" d="M745.35,1493.68c1.59-3.43,5.22-2.72,7.91-3.92l2,3-8,3Z" transform="translate(-304.32 475.2)"/><path class="cls-161" d="M737.21,1441.61c-.2,5.44-4.89,3.92-7.86,5.07,0-1,0-2,0-3C731.62,1441.53,734,1440,737.21,1441.61Z" transform="translate(-304.32 475.2)"/><path class="cls-162" d="M737.21,1441.61l-7.81,2.06c0-1,0-2,0-3,2.42-1.75,4.85-3.45,8.07-2l.81,1Z" transform="translate(-304.32 475.2)"/><path class="cls-163" d="M730.54,1434.49l8.55-2.81c-.26,1-.52,2-.77,3-1.58,2-3.86,2.59-6.21,2.59C730.34,1437.28,729.18,1436.48,730.54,1434.49Z" transform="translate(-304.32 475.2)"/><path class="cls-164" d="M737.45,1438.66l-8.07,2c0-.67.09-1.34.13-2,2.55-2.06,5.64-2.53,8.74-3C738.72,1436.88,737.61,1437.64,737.45,1438.66Z" transform="translate(-304.32 475.2)"/><path class="cls-165" d="M738.25,1435.69l-8.74,3c-.11-1.76-.43-3.54.73-5.12a2.59,2.59,0,0,1,.3.94c-.13,1.54.38,2.13,2,1.63,1.89-.58,3.84-1,5.76-1.43C738.29,1435,738.27,1435.36,738.25,1435.69Z" transform="translate(-304.32 475.2)"/><path class="cls-49" d="M871.67,1422.38c.88-3,4.19-3.19,6.13-3.11,3.58.15,4.14,3.92,4.36,6.67.32,4.12-4,4.13-6.06,4C872.08,1429.81,873,1425.38,871.67,1422.38Z" transform="translate(-304.32 475.2)"/><path class="cls-166" d="M875.35,1451.74c0-3.28,0-6.57-.05-9.85a4.82,4.82,0,0,1,1.77-4.35c1.76-1.3,3.72-2.45,5.91-1.58s1.07,3.13,1.31,4.79a20.73,20.73,0,0,1,0,3c-2,2.49-6.87,1.78-7,6.34C877,1451,876.65,1451.93,875.35,1451.74Z" transform="translate(-304.32 475.2)"/><path class="cls-167" d="M874.24,1462.66a9.08,9.08,0,0,1,1.06-5,8.57,8.57,0,0,1,5.38-2.32c2.75-.31,3.77.77,2.73,3.46-.17,1.65.31,3.44-1,4.86l-.62-.23C879.44,1461.59,876.55,1464.89,874.24,1462.66Z" transform="translate(-304.32 475.2)"/><path class="cls-168" d="M881.54,1466.7a11.94,11.94,0,0,1-2,6.31c-3.17.65-6,3.14-9.57,1.56l2.07-5C875,1468,877.85,1465.91,881.54,1466.7Z" transform="translate(-304.32 475.2)"/><path class="cls-169" d="M883.41,1458.82c-.11-1.5-.12-3-2.45-2.24a48.37,48.37,0,0,1-5.66,1.1c0-1,.08-2,.13-3,2.05-3.63,5-4.6,8.82-3C884.1,1454.11,884.9,1456.6,883.41,1458.82Z" transform="translate(-304.32 475.2)"/><path class="cls-170" d="M884.25,1451.72c-3.15.4-6.29.8-8.82,3,0-1-.06-2-.08-3a2.3,2.3,0,0,0,1-2.06,7.41,7.41,0,0,1,8-3Z" transform="translate(-304.32 475.2)"/><path class="cls-171" d="M870,1474.57c3.22-.33,6.09-2.83,9.57-1.56-.17,1-.09,2.07-1.09,2.72-3.26,1.75-6.16,4.86-10.45,2.83Z" transform="translate(-304.32 475.2)"/><path class="cls-172" d="M868,1478.56l10.45-2.83c-1,1.53-.63,3.64-2.16,4.93-3.56-1.91-6.58,1.39-10,1,0-.34-.05-.68-.07-1Z" transform="translate(-304.32 475.2)"/><path class="cls-173" d="M881.54,1466.7c-3.09,1.19-5.95,3.14-9.49,2.86l1-3c2.53-2.51,5.44-3.77,9-2.79l.33-.13C882.32,1464.74,882.5,1465.88,881.54,1466.7Z" transform="translate(-304.32 475.2)"/><path class="cls-174" d="M861.43,1404.43a5.58,5.58,0,0,1,.13-.9c2.45-1.54,6-.85,7.75-3.83l2,3c-1.73,3.53-4.48,4.38-8.06,3Z" transform="translate(-304.32 475.2)"/><path class="cls-175" d="M882.08,1463.81l-9,2.79c.23-1.36.18-2.82,1.2-3.94,2.09.24,3.88-.82,5.78-1.36C882.78,1460.51,882.15,1462.35,882.08,1463.81Z" transform="translate(-304.32 475.2)"/><path class="cls-176" d="M884.28,1446.73l-8,3c-.16-5.77,4.65-4.89,8-6Z" transform="translate(-304.32 475.2)"/><path class="cls-177" d="M873.28,1405.7c1.11.87,1.43,2.25.09,2.65-2.44.74-4.76,3.14-7.59,1.22a7.49,7.49,0,0,1-1.44-1.89C867.12,1406.11,870,1404.77,873.28,1405.7Z" transform="translate(-304.32 475.2)"/><path class="cls-178" d="M873.28,1405.7a22.78,22.78,0,0,1-8.94,2l-1.05-2c3-.08,5.53-1.63,8.06-3C872,1403.68,872.64,1404.69,873.28,1405.7Z" transform="translate(-304.32 475.2)"/><path class="cls-179" d="M1304.19,124.64l1,.26c1.66,2.25,1,4.84,1,7.27q.06,163.71,0,327.43,0,489.89,0,979.78a111.42,111.42,0,0,1-7.4,39.83c-1.36,1.17-2,.4-2.23-.94-.31-1.77.39-3.48.52-5.22a8.61,8.61,0,0,1,.44-1.5,11.48,11.48,0,0,0,1.45-6.34,9.57,9.57,0,0,1,1.08-5.09c1.49-2,1.15-4.31,1.25-6.57a7.3,7.3,0,0,1,.25-1.61c.85-3.41.71-6.88.7-10.35q0-653.94,0-1307.86c0-2.92-.86-6,1-8.77Z" transform="translate(-304.32 475.2)"/><path class="cls-132" d="M1303.24,125V1442.69c-1.43,3.23.37,6.77-1,10v1c-1.35,2.19.29,4.8-1,7-1.67,1.4-.76,3.31-1,5-.81,2-.91,4.14-2,6a1.61,1.61,0,0,1-2,.18,3.82,3.82,0,0,1-.12-2.93c.91-3.07,1.34-6.25,2-9.38a3.77,3.77,0,0,1,1.11-1.93c1.73-5.2,1.91-10.57,1.86-16,.06-2.16.18-4.32.18-6.49q0-652.16.14-1304.32C1301.37,129,1299,125.69,1303.24,125Z" transform="translate(-304.32 475.2)"/><path class="cls-180" d="M1304.13-23.23l2.92-.13c1.29,1.63.63,3.53.64,5.29q.07,45.18,0,90.35c-.37,3.06-1.61,1.56-2.57.42-1.41-1.68-.49-4.16-1.89-5.89q-.06-42.62-.13-85.24A10.53,10.53,0,0,1,1304.13-23.23Z" transform="translate(-304.32 475.2)"/><path class="cls-181" d="M1303.27,66.81c3,1.38,1.28,5.42,3.91,7,1.23,4.63.22,9.34.53,14-2,.78-2.35.7-3-1s-.19-3.56-1.39-5Z" transform="translate(-304.32 475.2)"/><path class="cls-182" d="M1303.27,81.81c3,1.38,1.29,5.41,3.9,7,1.23,4,.23,8,.54,12-1,2.28-1.84.74-2.58-.12-1.19-1.38-.68-3.47-1.86-4.89Z" transform="translate(-304.32 475.2)"/><path class="cls-183" d="M1303.27,95.81c2.66,1.13,1.72,4.58,3.9,6,1.18,3.63.27,7.37.54,11-1,2.23-1.89.68-2.62-.16-1.19-1.38-.87-3.38-1.82-4.89Z" transform="translate(-304.32 475.2)"/><path class="cls-184" d="M1303.27,107.81l3.9,6a11.55,11.55,0,0,1-.08,8l-3.81-.06Q1303.26,114.8,1303.27,107.81Z" transform="translate(-304.32 475.2)"/><path class="cls-185" d="M1299.19,1457.63c0,.72-.06,1.44-.08,2.16-1.79,2.71-1.45,6-2.52,8.94-2.08,13.72-8,26-14.6,38-.73.81-1.52,1.46-2.72,1.06,2.92-8.63,8.14-16.21,11-24.91a153.72,153.72,0,0,0,7-30.75,88.42,88.42,0,0,0,.94-13.3,6.38,6.38,0,0,1,1-.1c0,4.94.39,9.89-.84,14.77A4.07,4.07,0,0,0,1299.19,1457.63Z" transform="translate(-304.32 475.2)"/><path class="cls-186" d="M1297.24,1479.69c2.52-2.5,3-6,3.75-9.08a194,194,0,0,0,4.36-42.84q-.21-651.43-.11-1302.87l1.85-1.46c.05,2.33.14,4.66.14,7q0,654.54,0,1309.06c0,14.8-3.41,29.06-8.32,43-.83,2.35-1.89,4.64-1.64,7.23a21.41,21.41,0,0,0-4.26,6.57c-4.94,11.21-12.28,20.85-19.73,30.42-5.08,8-12.52,13.7-19.73,19.48-7.85,6.29-16.12,12.12-25.26,16.52-1.46,1-2.91,2-4.81,1.33-1-1.49.15-2.14,1.13-2.65,15.08-7.9,27.88-18.71,39.58-30.93a3.31,3.31,0,0,1,.82-.56c8.12-7.26,14.25-16,19.92-25.28C1289.78,1496.63,1292.33,1487.59,1297.24,1479.69Z" transform="translate(-304.32 475.2)"/><path class="cls-186" d="M1307.09,121.85q0-4,.08-8v-25q0-7.5,0-15-.06-48.6-.13-97.19a4,4,0,0,0,0-.77c1.93,1.32,1.14,3.33,1.14,5q.08,68.58,0,137.16c0,1.59.54,3.36-.89,4.71Q1307.22,122.32,1307.09,121.85Z" transform="translate(-304.32 475.2)"/><path class="cls-179" d="M1304.24-322.15c1.8,10.73,1,21.55,1,32.33q.09,131.83,0,263.68l-2-.18q0-145.08,0-290.15C1303.27-318.37,1302.51-320.5,1304.24-322.15Z" transform="translate(-304.32 475.2)"/><path class="cls-186" d="M1306.24-25.2q0-131.43.06-262.87c0-21.43-.15-42.81-3.06-64.08,3,7.81,3.81,16.16,3.83,24.27q.36,151.17.14,302.35c0,.5,0,1-.08,1.5Z" transform="translate(-304.32 475.2)"/><path class="cls-50" d="M1300.44-336.16c1.34,1.6.84,3.43.65,5.23C1300.08-332.57,1300.35-334.37,1300.44-336.16Z" transform="translate(-304.32 475.2)"/><path class="cls-106" d="M1166.26-466.14v1H463.39v-1Z" transform="translate(-304.32 475.2)"/><path class="cls-106" d="M451.39-464.14c3.5-2.13,7.35-.48,11-1C458.89-463,455-464.66,451.39-464.14Z" transform="translate(-304.32 475.2)"/><path class="cls-106" d="M1167.26-465.14h11v1C1174.61-464.66,1170.76-463,1167.26-465.14Z" transform="translate(-304.32 475.2)"/><path class="cls-106" d="M1222.25-452.14c1.71-.09,3.24.18,4,2A5.47,5.47,0,0,1,1222.25-452.14Z" transform="translate(-304.32 475.2)"/><path class="cls-187" d="M655.3-328l3-.18c-.41,7.78-5.26,10.81-13,8.08,0-1.37,2.29-2.63.53-4-1.27-1-2.38.71-3.61,1-1.85-2.26-.63-4.79-.62-7.2a9.86,9.86,0,0,1,8.67.81c1.1,1.24.22,3.21,1.62,4.42C653.92-325.07,654-327.32,655.3-328Z" transform="translate(-304.32 475.2)"/><path class="cls-188" d="M650.33-329.16l-8.68-1.13c.26-1.94,1.79-3.08,2.81-4.53,2.61-.87,5.18-2.4,8-.51a8,8,0,0,0-.08,4.91C652.11-329.3,651.53-328.74,650.33-329.16Z" transform="translate(-304.32 475.2)"/><path class="cls-189" d="M642.27-323.09c.25-2.14,1.39-3.23,3.59-3a2.59,2.59,0,0,1,2.36,2.12c.58,2.43-1.31,3-2.87,3.8l-2.89-2.11A7.68,7.68,0,0,0,642.27-323.09Z" transform="translate(-304.32 475.2)"/><path class="cls-190" d="M650.33-329.16l2-1.26,3,2.37c.24,2.91-1.58,5.52-3.82,5.14C649.87-323.17,649.06-326.69,650.33-329.16Z" transform="translate(-304.32 475.2)"/><path class="cls-129" d="M1265.14,1530.64c-12.28,13.27-26.58,23.95-42.24,32.88-2.84,4.27-7.94,4.46-12,6.27a71.47,71.47,0,0,1-16.42,5.31c-1.4.26-2.93,1-4.14-.51,2.06-1.86,4.79-2.09,7.25-2.84a145.58,145.58,0,0,0,64.25-40.21c1.37-1.44,2.87-2.76,4.3-4.13a1.79,1.79,0,0,1,.7,1.16C1266.78,1529.69,1265.94,1530.15,1265.14,1530.64Z" transform="translate(-304.32 475.2)"/><path class="cls-191" d="M1190.31,1574.59c7,.26,13.1-3.08,19.41-5.36,4.49-1.63,8.79-3.79,13.18-5.71,1.92.56,3.55-.69,5.35-.84-2.18,2.6-5.33,3.84-8.27,5a168.65,168.65,0,0,1-28,8.85,20.8,20.8,0,0,1-4,0l.64-1.84Z" transform="translate(-304.32 475.2)"/><path class="cls-99" d="M1266.23,1528.64l-.12-1.23c3.53-5,7.11-9.91,10.57-14.92a48.28,48.28,0,0,0,2.58-4.75l1.73-1.15a1.07,1.07,0,0,1,1.32-.06c.2,3.65-2.36,6.1-4.14,8.75a154,154,0,0,1-10.25,12.86C1267.46,1528.69,1267,1529,1266.23,1528.64Z" transform="translate(-304.32 475.2)"/><path class="cls-191" d="M1228.25,1562.68c3-4,8-5.09,11.88-7.82,10.84-7.62,21.53-15.35,30.1-25.62a23.35,23.35,0,0,1,3-2.56v2a129.91,129.91,0,0,1-22.35,20.37c-5.08,3.63-10.09,7.37-15.34,10.76C1233.33,1561.25,1231.1,1562.8,1228.25,1562.68Z" transform="translate(-304.32 475.2)"/><path class="cls-192" d="M1266.23,1528.64a105.61,105.61,0,0,0,15.83-22c2.37-7,6.52-13.24,9.16-20.18,1.86-4.9,2.92-10.07,5.22-14.81h1.8c.5,2.77-1,5.3-1,8a79.68,79.68,0,0,1-6.82,17.43,146.32,146.32,0,0,1-21.19,31c-1.09,1.22-2.14,2.62-4.09,2.5Z" transform="translate(-304.32 475.2)"/><path class="cls-192" d="M1302.24,1452.69c.45-3.32-1-6.84,1-10C1302.78,1446,1304.28,1449.53,1302.24,1452.69Z" transform="translate(-304.32 475.2)"/><path class="cls-192" d="M1298.24,1471.69a9.44,9.44,0,0,1,2-6C1300.32,1467.94,1300.18,1470.12,1298.24,1471.69Z" transform="translate(-304.32 475.2)"/><path class="cls-192" d="M1301.24,1460.69c.39-2.33-.92-4.89,1-7C1301.85,1456,1303.16,1458.58,1301.24,1460.69Z" transform="translate(-304.32 475.2)"/><path class="cls-193" d="M1296.44,1471.69c-2.68,12.53-7.85,24-14.38,35l-1.07-.09c6.18-12.23,11.64-24.74,15.16-38,.6.12.66.72,1,1.11Z" transform="translate(-304.32 475.2)"/><path class="cls-43" d="M1297.11,1469.67l-1-1.11c.95-2.94-.44-6.66,3-8.77C1298.44,1463.08,1297.78,1466.37,1297.11,1469.67Z" transform="translate(-304.32 475.2)"/></svg>